<svg width="342" height="82" viewBox="0 0 342 82" fill="none" xmlns="http://www.w3.org/2000/svg">
<rect width="341.226" height="82" fill="#030303"/>
<path fill-rule="evenodd" clip-rule="evenodd" d="M55.5482 56.8708C64.3135 56.8708 71.4192 49.7652 71.4192 40.9999C71.4192 32.2346 64.3135 25.1289 55.5482 25.1289C46.7829 25.1289 39.6772 32.2346 39.6772 40.9999C39.6772 49.7652 46.7829 56.8708 55.5482 56.8708ZM60.4994 32.5223C60.7404 31.6662 59.9097 31.16 59.151 31.7005L48.5595 39.2458C47.7367 39.832 47.8661 40.9999 48.754 40.9999H51.543V40.9783H56.9786L52.5496 42.541L50.5971 49.4775C50.356 50.3336 51.1867 50.8398 51.9455 50.2992L62.5369 42.754C63.3598 42.1678 63.2303 40.9999 62.3425 40.9999H58.1131L60.4994 32.5223Z" fill="#A8FF35"/>
<path d="M91.9877 32.0749V48.9998H89.7442V32.0749H91.9877ZM99.0785 39.6887V41.5254H91.4995V39.6887H99.0785ZM100.229 32.0749V33.9115H91.4995V32.0749H100.229ZM104.914 36.4223V48.9998H102.752V36.4223H104.914ZM102.589 33.0862C102.589 32.7374 102.694 32.443 102.903 32.2027C103.12 31.9625 103.438 31.8424 103.856 31.8424C104.267 31.8424 104.581 31.9625 104.798 32.2027C105.022 32.443 105.135 32.7374 105.135 33.0862C105.135 33.4194 105.022 33.7061 104.798 33.9464C104.581 34.1788 104.267 34.2951 103.856 34.2951C103.438 34.2951 103.12 34.1788 102.903 33.9464C102.694 33.7061 102.589 33.4194 102.589 33.0862ZM110.517 39.1075V48.9998H108.366V36.4223H110.401L110.517 39.1075ZM110.005 42.2344L109.11 42.1996C109.118 41.3394 109.246 40.5451 109.494 39.8166C109.742 39.0804 110.091 38.4411 110.54 37.8986C110.989 37.3561 111.524 36.9377 112.144 36.6432C112.772 36.341 113.465 36.1898 114.225 36.1898C114.845 36.1898 115.403 36.2751 115.899 36.4456C116.395 36.6083 116.817 36.8718 117.166 37.236C117.522 37.6002 117.794 38.073 117.98 38.6542C118.166 39.2276 118.259 39.929 118.259 40.7582V48.9998H116.096V40.7349C116.096 40.0762 116 39.5492 115.806 39.154C115.612 38.751 115.329 38.4604 114.957 38.2822C114.585 38.0962 114.128 38.0032 113.586 38.0032C113.051 38.0032 112.563 38.1156 112.121 38.3403C111.687 38.5651 111.311 38.875 110.993 39.2703C110.683 39.6655 110.439 40.1188 110.261 40.6303C110.091 41.134 110.005 41.6687 110.005 42.2344ZM129.453 46.5587V31.1449H131.615V48.9998H129.639L129.453 46.5587ZM120.99 42.8505V42.6064C120.99 41.6455 121.106 40.7737 121.339 39.991C121.579 39.2005 121.916 38.5224 122.35 37.9567C122.792 37.391 123.315 36.957 123.92 36.6548C124.532 36.3448 125.214 36.1898 125.965 36.1898C126.756 36.1898 127.446 36.3293 128.034 36.6083C128.631 36.8795 129.135 37.2786 129.546 37.8056C129.964 38.3248 130.293 38.9525 130.534 39.6887C130.774 40.4249 130.941 41.258 131.034 42.1879V43.2574C130.948 44.1796 130.782 45.0088 130.534 45.745C130.293 46.4812 129.964 47.1089 129.546 47.6281C129.135 48.1473 128.631 48.5464 128.034 48.8254C127.438 49.0966 126.74 49.2322 125.942 49.2322C125.206 49.2322 124.532 49.0734 123.92 48.7556C123.315 48.4379 122.792 47.9923 122.35 47.4189C121.916 46.8454 121.579 46.1712 121.339 45.3962C121.106 44.6135 120.99 43.765 120.99 42.8505ZM123.152 42.6064V42.8505C123.152 43.4782 123.214 44.0672 123.338 44.6174C123.47 45.1676 123.672 45.652 123.943 46.0704C124.214 46.4889 124.559 46.8183 124.977 47.0585C125.396 47.291 125.896 47.4072 126.477 47.4072C127.19 47.4072 127.775 47.2561 128.232 46.9539C128.697 46.6517 129.069 46.2526 129.348 45.7566C129.627 45.2606 129.844 44.722 129.999 44.1408V41.3394C129.906 40.9132 129.77 40.5024 129.592 40.1072C129.422 39.7042 129.197 39.3478 128.918 39.0378C128.647 38.7201 128.31 38.4682 127.907 38.2822C127.511 38.0962 127.043 38.0032 126.5 38.0032C125.911 38.0032 125.404 38.1272 124.977 38.3752C124.559 38.6154 124.214 38.9487 123.943 39.3749C123.672 39.7934 123.47 40.2816 123.338 40.8395C123.214 41.3898 123.152 41.9787 123.152 42.6064ZM140.228 36.4223V38.073H133.428V36.4223H140.228ZM135.73 33.3651H137.88V45.8845C137.88 46.3107 137.946 46.6323 138.078 46.8493C138.21 47.0663 138.38 47.2096 138.589 47.2794C138.799 47.3491 139.023 47.384 139.264 47.384C139.442 47.384 139.628 47.3685 139.821 47.3375C140.023 47.2987 140.174 47.2677 140.275 47.2445L140.286 48.9998C140.116 49.054 139.891 49.1044 139.612 49.1509C139.341 49.2051 139.012 49.2322 138.624 49.2322C138.097 49.2322 137.613 49.1276 137.171 48.9184C136.729 48.7091 136.377 48.3604 136.113 47.8722C135.858 47.3762 135.73 46.7098 135.73 45.8728V33.3651ZM144.901 38.3984V48.9998H142.751V36.4223H144.843L144.901 38.3984ZM148.83 36.3526L148.819 38.3519C148.64 38.3132 148.47 38.29 148.307 38.2822C148.152 38.2667 147.974 38.259 147.772 38.259C147.276 38.259 146.839 38.3365 146.459 38.4914C146.079 38.6464 145.758 38.8634 145.494 39.1424C145.231 39.4214 145.021 39.7546 144.866 40.1421C144.719 40.5218 144.622 40.9403 144.576 41.3975L143.971 41.7462C143.971 40.9868 144.045 40.2738 144.192 39.6074C144.347 38.9409 144.584 38.3519 144.901 37.8405C145.219 37.3213 145.622 36.9183 146.11 36.6316C146.606 36.3371 147.195 36.1898 147.877 36.1898C148.032 36.1898 148.21 36.2092 148.412 36.248C148.613 36.279 148.753 36.3138 148.83 36.3526ZM155.805 49.2322C154.929 49.2322 154.135 49.085 153.422 48.7905C152.717 48.4883 152.108 48.0659 151.597 47.5235C151.093 46.981 150.706 46.3378 150.434 45.5939C150.163 44.8499 150.028 44.0362 150.028 43.1528V42.6645C150.028 41.6416 150.179 40.731 150.481 39.9328C150.783 39.1269 151.194 38.4449 151.713 37.887C152.232 37.329 152.821 36.9067 153.48 36.6199C154.139 36.3332 154.821 36.1898 155.526 36.1898C156.425 36.1898 157.2 36.3448 157.851 36.6548C158.509 36.9648 159.048 37.3988 159.466 37.9567C159.885 38.5069 160.195 39.1579 160.396 39.9096C160.598 40.6535 160.699 41.4672 160.699 42.3507V43.3155H151.306V41.5602H158.548V41.3975C158.517 40.8395 158.401 40.2971 158.199 39.7701C158.006 39.2431 157.696 38.8092 157.269 38.4682C156.843 38.1272 156.262 37.9567 155.526 37.9567C155.038 37.9567 154.588 38.0613 154.177 38.2706C153.767 38.4721 153.414 38.7743 153.12 39.1773C152.825 39.5802 152.597 40.0723 152.434 40.6535C152.271 41.2348 152.19 41.9051 152.19 42.6645V43.1528C152.19 43.7495 152.271 44.3113 152.434 44.8383C152.604 45.3575 152.848 45.8147 153.166 46.2099C153.492 46.6052 153.883 46.9151 154.34 47.1399C154.805 47.3646 155.332 47.477 155.921 47.477C156.681 47.477 157.324 47.322 157.851 47.012C158.378 46.702 158.839 46.2874 159.234 45.7682L160.536 46.8028C160.265 47.2135 159.92 47.6048 159.501 47.9768C159.083 48.3488 158.568 48.651 157.955 48.8835C157.351 49.116 156.634 49.2322 155.805 49.2322ZM165.36 39.1075V48.9998H163.209V36.4223H165.244L165.36 39.1075ZM164.848 42.2344L163.953 42.1996C163.961 41.3394 164.089 40.5451 164.337 39.8166C164.585 39.0804 164.934 38.4411 165.383 37.8986C165.833 37.3561 166.367 36.9377 166.987 36.6432C167.615 36.341 168.309 36.1898 169.068 36.1898C169.688 36.1898 170.246 36.2751 170.742 36.4456C171.238 36.6083 171.66 36.8718 172.009 37.236C172.365 37.6002 172.637 38.073 172.823 38.6542C173.009 39.2276 173.102 39.929 173.102 40.7582V48.9998H170.94V40.7349C170.94 40.0762 170.843 39.5492 170.649 39.154C170.455 38.751 170.172 38.4604 169.8 38.2822C169.428 38.0962 168.971 38.0032 168.429 38.0032C167.894 38.0032 167.406 38.1156 166.964 38.3403C166.53 38.5651 166.154 38.875 165.837 39.2703C165.527 39.6655 165.282 40.1188 165.104 40.6303C164.934 41.134 164.848 41.6687 164.848 42.2344ZM184.296 46.5587V31.1449H186.458V48.9998H184.482L184.296 46.5587ZM175.833 42.8505V42.6064C175.833 41.6455 175.95 40.7737 176.182 39.991C176.422 39.2005 176.759 38.5224 177.193 37.9567C177.635 37.391 178.158 36.957 178.763 36.6548C179.375 36.3448 180.057 36.1898 180.809 36.1898C181.599 36.1898 182.289 36.3293 182.878 36.6083C183.474 36.8795 183.978 37.2786 184.389 37.8056C184.807 38.3248 185.137 38.9525 185.377 39.6887C185.617 40.4249 185.784 41.258 185.877 42.1879V43.2574C185.791 44.1796 185.625 45.0088 185.377 45.745C185.137 46.4812 184.807 47.1089 184.389 47.6281C183.978 48.1473 183.474 48.5464 182.878 48.8254C182.281 49.0966 181.584 49.2322 180.785 49.2322C180.049 49.2322 179.375 49.0734 178.763 48.7556C178.158 48.4379 177.635 47.9923 177.193 47.4189C176.759 46.8454 176.422 46.1712 176.182 45.3962C175.95 44.6135 175.833 43.765 175.833 42.8505ZM177.995 42.6064V42.8505C177.995 43.4782 178.057 44.0672 178.181 44.6174C178.313 45.1676 178.515 45.652 178.786 46.0704C179.057 46.4889 179.402 46.8183 179.82 47.0585C180.239 47.291 180.739 47.4072 181.32 47.4072C182.033 47.4072 182.618 47.2561 183.075 46.9539C183.54 46.6517 183.912 46.2526 184.191 45.7566C184.47 45.2606 184.687 44.722 184.842 44.1408V41.3394C184.749 40.9132 184.614 40.5024 184.435 40.1072C184.265 39.7042 184.04 39.3478 183.761 39.0378C183.49 38.7201 183.153 38.4682 182.75 38.2822C182.355 38.0962 181.886 38.0032 181.343 38.0032C180.754 38.0032 180.247 38.1272 179.82 38.3752C179.402 38.6154 179.057 38.9487 178.786 39.3749C178.515 39.7934 178.313 40.2816 178.181 40.8395C178.057 41.3898 177.995 41.9787 177.995 42.6064ZM200.186 40.9209V42.6878H194.514V40.9209H200.186ZM219.273 47.1747V48.9998H210.311V47.1747H219.273ZM210.764 32.0749V48.9998H208.521V32.0749H210.764ZM218.088 39.3516V41.1766H210.311V39.3516H218.088ZM219.157 32.0749V33.9115H210.311V32.0749H219.157ZM224.062 31.1449V48.9998H221.9V31.1449H224.062ZM226.945 42.8505V42.5832C226.945 41.6765 227.077 40.8357 227.34 40.0607C227.604 39.278 227.984 38.5999 228.48 38.0265C228.976 37.4453 229.576 36.9958 230.281 36.6781C230.987 36.3526 231.777 36.1898 232.653 36.1898C233.536 36.1898 234.33 36.3526 235.036 36.6781C235.749 36.9958 236.353 37.4453 236.849 38.0265C237.353 38.5999 237.736 39.278 238 40.0607C238.263 40.8357 238.395 41.6765 238.395 42.5832V42.8505C238.395 43.7572 238.263 44.598 238 45.373C237.736 46.1479 237.353 46.826 236.849 47.4072C236.353 47.9807 235.752 48.4302 235.047 48.7556C234.35 49.0734 233.559 49.2322 232.676 49.2322C231.792 49.2322 230.998 49.0734 230.293 48.7556C229.588 48.4302 228.983 47.9807 228.48 47.4072C227.984 46.826 227.604 46.1479 227.34 45.373C227.077 44.598 226.945 43.7572 226.945 42.8505ZM229.096 42.5832V42.8505C229.096 43.4782 229.169 44.0711 229.317 44.629C229.464 45.1793 229.685 45.6675 229.979 46.0937C230.281 46.5199 230.657 46.857 231.107 47.105C231.556 47.3452 232.079 47.4654 232.676 47.4654C233.265 47.4654 233.78 47.3452 234.222 47.105C234.671 46.857 235.043 46.5199 235.338 46.0937C235.632 45.6675 235.853 45.1793 236 44.629C236.155 44.0711 236.233 43.4782 236.233 42.8505V42.5832C236.233 41.9632 236.155 41.3781 236 40.8279C235.853 40.2699 235.628 39.7779 235.326 39.3516C235.032 38.9177 234.66 38.5767 234.21 38.3287C233.769 38.0807 233.249 37.9567 232.653 37.9567C232.064 37.9567 231.545 38.0807 231.095 38.3287C230.653 38.5767 230.281 38.9177 229.979 39.3516C229.685 39.7779 229.464 40.2699 229.317 40.8279C229.169 41.3781 229.096 41.9632 229.096 42.5832ZM243.242 39.1075V48.9998H241.092V36.4223H243.126L243.242 39.1075ZM242.731 42.2344L241.836 42.1996C241.844 41.3394 241.971 40.5451 242.219 39.8166C242.467 39.0804 242.816 38.4411 243.266 37.8986C243.715 37.3561 244.25 36.9377 244.87 36.6432C245.497 36.341 246.191 36.1898 246.951 36.1898C247.57 36.1898 248.128 36.2751 248.624 36.4456C249.12 36.6083 249.543 36.8718 249.891 37.236C250.248 37.6002 250.519 38.073 250.705 38.6542C250.891 39.2276 250.984 39.929 250.984 40.7582V48.9998H248.822V40.7349C248.822 40.0762 248.725 39.5492 248.531 39.154C248.338 38.751 248.055 38.4604 247.683 38.2822C247.311 38.0962 246.854 38.0032 246.311 38.0032C245.776 38.0032 245.288 38.1156 244.847 38.3403C244.413 38.5651 244.037 38.875 243.719 39.2703C243.409 39.6655 243.165 40.1188 242.987 40.6303C242.816 41.134 242.731 41.6687 242.731 42.2344ZM261.19 32.0749H263.364L268.909 45.8728L274.442 32.0749H276.627L269.746 48.9998H268.048L261.19 32.0749ZM260.481 32.0749H262.399L262.713 42.3972V48.9998H260.481V32.0749ZM275.407 32.0749H277.325V48.9998H275.093V42.3972L275.407 32.0749ZM288.635 46.0937V36.4223H290.797V48.9998H288.74L288.635 46.0937ZM289.042 43.4434L289.937 43.4201C289.937 44.2571 289.848 45.032 289.67 45.745C289.499 46.4502 289.22 47.0624 288.833 47.5816C288.445 48.1008 287.938 48.5077 287.31 48.8021C286.682 49.0889 285.919 49.2322 285.02 49.2322C284.408 49.2322 283.846 49.1431 283.334 48.9649C282.831 48.7866 282.397 48.5115 282.032 48.1396C281.668 47.7676 281.385 47.2832 281.184 46.6865C280.99 46.0898 280.893 45.373 280.893 44.536V36.4223H283.044V44.5593C283.044 45.125 283.106 45.5939 283.23 45.9658C283.362 46.3301 283.536 46.6207 283.753 46.8376C283.978 47.0469 284.226 47.1941 284.497 47.2794C284.776 47.3646 285.063 47.4072 285.357 47.4072C286.271 47.4072 286.996 47.2329 287.531 46.8841C288.065 46.5277 288.449 46.0511 288.682 45.4544C288.922 44.8499 289.042 44.1796 289.042 43.4434ZM301.398 45.6636C301.398 45.3536 301.329 45.0669 301.189 44.8034C301.057 44.5322 300.782 44.2881 300.364 44.0711C299.953 43.8463 299.333 43.6526 298.504 43.4899C297.807 43.3426 297.175 43.1683 296.609 42.9668C296.051 42.7653 295.575 42.5212 295.179 42.2344C294.792 41.9477 294.494 41.6106 294.284 41.2231C294.075 40.8357 293.971 40.3823 293.971 39.8631C293.971 39.3671 294.079 38.8983 294.296 38.4566C294.521 38.0148 294.835 37.6235 295.238 37.2825C295.648 36.9415 296.14 36.6742 296.714 36.4804C297.287 36.2867 297.927 36.1898 298.632 36.1898C299.639 36.1898 300.5 36.3681 301.212 36.7246C301.925 37.081 302.472 37.5576 302.851 38.1543C303.231 38.7433 303.421 39.3981 303.421 40.1188H301.271C301.271 39.7701 301.166 39.433 300.957 39.1075C300.755 38.7743 300.457 38.4992 300.062 38.2822C299.674 38.0652 299.198 37.9567 298.632 37.9567C298.035 37.9567 297.551 38.0497 297.179 38.2357C296.815 38.4139 296.547 38.6426 296.377 38.9215C296.214 39.2005 296.133 39.495 296.133 39.805C296.133 40.0375 296.171 40.2467 296.249 40.4327C296.334 40.6109 296.481 40.7775 296.691 40.9325C296.9 41.0798 297.194 41.2193 297.574 41.351C297.954 41.4827 298.438 41.6145 299.027 41.7462C300.058 41.9787 300.906 42.2577 301.573 42.5832C302.239 42.9087 302.735 43.3078 303.061 43.7805C303.386 44.2532 303.549 44.8267 303.549 45.5009C303.549 46.0511 303.433 46.5548 303.2 47.012C302.975 47.4692 302.646 47.8645 302.212 48.1977C301.786 48.5232 301.274 48.7789 300.678 48.9649C300.089 49.1431 299.426 49.2322 298.69 49.2322C297.582 49.2322 296.644 49.0346 295.877 48.6394C295.11 48.2442 294.529 47.7327 294.133 47.105C293.738 46.4773 293.54 45.8147 293.54 45.1173H295.703C295.734 45.7062 295.904 46.1751 296.214 46.5238C296.524 46.8648 296.904 47.1089 297.353 47.2561C297.803 47.3956 298.248 47.4654 298.69 47.4654C299.279 47.4654 299.771 47.3879 300.166 47.2329C300.569 47.0779 300.875 46.8648 301.085 46.5935C301.294 46.3223 301.398 46.0123 301.398 45.6636ZM308.536 31.1449V48.9998H306.374V31.1449H308.536ZM316.219 36.4223L310.733 42.2926L307.664 45.4776L307.49 43.1876L309.687 40.5606L313.592 36.4223H316.219ZM314.255 48.9998L309.768 43.0016L310.884 41.0836L316.789 48.9998H314.255Z" fill="white"/>
<rect x="256.581" width="84.6452" height="82" fill="url(#paint0_linear_2_227)"/>
<rect width="2.64056" height="19.8042" rx="0.66129" transform="matrix(0.707101 -0.707112 0.707101 0.707112 304.193 34.9316)" fill="white"/>
<rect width="2.64056" height="19.8042" rx="0.66129" transform="matrix(-0.707101 -0.707112 -0.707101 0.707112 320.064 34.9316)" fill="white"/>
<defs>
<linearGradient id="paint0_linear_2_227" x1="341.226" y1="41" x2="256.581" y2="41" gradientUnits="userSpaceOnUse">
<stop offset="0.536458" stop-color="#030303"/>
<stop offset="1" stop-color="#030303" stop-opacity="0.6"/>
</linearGradient>
</defs>
</svg>
