<svg width="97" height="73" viewBox="0 0 97 73" fill="none" xmlns="http://www.w3.org/2000/svg">
<g clip-path="url(#clip0_2_237)">
<path d="M53.5859 27.2035C53.1358 25.5533 53.8581 24.2828 54.6755 23.1988C55.8325 21.7059 57.162 20.3208 58.5865 19.1221C65.2933 13.772 73.0411 11.7678 81.5142 12.6442C83.6677 12.8747 85.8237 13.4172 88.2129 13.8797C87.7425 11.6523 85.9513 9.98288 85.3402 7.70995C86.3542 7.77893 86.8118 8.44588 87.206 8.98856C88.8147 11.2214 90.4082 13.5011 91.9395 15.8127C92.6659 16.9298 92.562 17.5705 91.4442 18.1423C89.1312 19.3646 86.6711 19.761 84.126 19.3C84.0322 19.2696 83.9371 19.0832 83.7634 18.8194C84.9331 16.9676 87.3604 18.2724 88.861 16.8389C85.8683 15.0398 82.5905 14.6008 79.3154 14.474C75.8843 14.3486 72.5028 14.5504 69.2214 15.5628C66.0021 16.5435 63.1467 18.1607 60.3559 20.0582C57.5335 21.8936 55.355 24.3007 53.5859 27.2035Z" fill="black"/>
</g>
<path d="M20.4151 40.896C19.6544 40.9005 18.9334 41.064 18.3678 41.624C18.1465 41.8541 18.0125 42.4594 18.0023 42.8244C17.9826 43.4135 18.5191 43.9345 18.9559 44.3323C19.3165 44.6517 20.212 45.2386 20.0656 45.8285C19.1102 46.8824 18.6813 45.7393 17.8958 45.9805C17.7507 46.0216 17.5675 46.1572 17.5265 46.2795C17.3266 46.9765 17.5025 47.178 18.6581 47.5669C19.1477 47.731 19.9252 47.7001 20.3428 47.4765C20.9239 47.1716 21.4309 46.6336 21.5392 45.8708C21.6754 44.8434 20.8597 44.1664 20.3356 43.6608C20.2206 43.5502 19.5346 43.1121 19.6034 42.7252C19.6781 42.2826 20.1368 42.2041 20.8806 42.4934C21.1459 42.648 21.7352 43.2026 22.0371 43.0091C22.1851 42.9402 22.5207 42.6939 22.5169 42.3275C22.5125 41.8344 22.006 41.4292 21.4725 41.1479C21.2058 41.0073 20.4861 40.8894 20.4151 40.896ZM25.7836 41.4602C25.3307 41.483 25.0919 41.6128 24.7314 41.8283C24.1584 42.1904 24.0727 42.3362 23.6997 42.8038C22.992 43.6444 22.6705 45.2295 23.3016 46.3235C23.6615 46.7836 24.4222 47.314 25.125 47.4583C25.9641 47.645 26.6294 47.4756 27.1951 47.1831C28.1843 46.6114 28.9375 45.6066 28.8999 44.4906C29.0315 42.7026 27.8405 41.3104 25.7836 41.4602ZM24.4717 44.9683C24.4247 44.0765 25.2291 42.8519 25.9956 42.7917C26.9892 42.7131 27.7149 43.8452 27.3413 44.9884C27.1502 45.6018 26.4959 46.0679 26.0511 46.1479C25.1072 46.288 24.5114 45.6623 24.4717 44.9683ZM31.8713 38.6934C30.8938 38.8863 30.8288 40.442 30.6099 41.5874C30.295 43.2436 29.9977 44.4652 29.6228 46.1573C29.4829 46.8183 28.8611 48.583 29.3067 48.8973C29.6841 49.1903 30.3252 48.8495 30.5392 48.4215C30.6813 48.1408 30.9361 47.0555 31.0203 46.6561C31.4164 44.6284 31.828 42.8557 32.205 40.7415C32.361 39.9274 32.8767 38.5035 31.8713 38.6934ZM34.2009 43.0488C32.9954 42.8658 32.7758 43.8844 32.6074 44.9507C32.5496 45.3669 32.4347 46.3261 32.4406 46.8054C32.4576 47.8489 33.0872 48.4218 33.82 48.6818C35.8316 49.2311 36.7292 48.326 37.3401 46.7995C37.5671 46.2462 37.7165 45.6284 37.789 45.0729C37.8732 44.4061 37.9682 43.2336 37.5893 42.9545C37.3548 42.775 36.6579 42.8425 36.5027 43.2485C36.343 43.6963 36.3219 44.8343 36.2018 45.4411C36.0517 46.1995 35.5412 47.441 34.9754 47.466C33.3223 47.6582 34.0555 45.3703 34.2825 44.2821C34.3835 43.8563 34.552 43.325 34.2009 43.0488ZM42.302 43.3512C42.2483 42.3884 42.5384 42.0388 42.7135 41.3111C42.89 40.8369 43.0116 40.4837 42.311 40.4523C41.2052 40.3924 41.22 41.323 41.0099 42.1174C40.9205 42.4318 40.7631 43.2599 40.5088 43.4021C40.27 43.5318 39.3107 43.4169 39.011 43.4558C38.7208 43.5379 38.4549 43.7915 38.3853 44.0517C38.2908 44.2811 38.3429 44.7229 38.6192 44.9068C39.0025 45.1442 40.0225 44.815 40.2907 45.2092C40.1502 46.0109 40.0689 46.6499 39.9298 47.1702C39.8895 47.4194 39.6112 48.46 39.5431 48.7062C39.4918 48.926 39.0597 50.0913 39.1198 50.3228C39.1968 50.528 39.6292 50.7001 39.9399 50.6905C40.6463 50.6663 40.8922 49.1295 41.0395 48.6664C41.1105 48.3923 41.3624 47.3349 41.4195 47.0593C41.4964 46.7296 41.7592 45.1665 42.0472 44.9715C42.3212 44.7751 43.4527 44.9925 43.9077 44.8151C44.2162 44.6927 44.4257 44.3065 44.3817 43.9218C44.3113 43.2527 42.6025 43.7066 42.302 43.3512ZM46.5733 41.9842C46.1886 42.0283 45.812 42.3969 45.8099 42.819C45.8056 43.6632 47.3203 43.5831 47.3956 42.7323C47.4344 42.2296 47.0709 41.938 46.5733 41.9842ZM46.1992 44.338C45.5251 44.3235 45.2357 45.0673 45.0636 45.7672C44.8557 46.6744 44.625 47.6637 44.4126 48.6127C44.2859 49.1484 44.1021 49.6921 44.3139 49.9537C44.6115 50.3369 45.504 50.1492 45.7399 49.7798C45.9099 49.5021 45.95 48.718 46.0306 48.2197C46.166 47.333 46.3886 46.554 46.6252 45.7764C46.7468 45.4232 46.9087 45.0883 46.8859 44.9029C46.8544 44.5336 46.3971 44.3307 46.1992 44.338ZM50.163 44.0226C49.7101 44.0454 49.4712 44.1752 49.1107 44.3907C48.5378 44.7527 48.452 44.8986 48.0791 45.3662C47.3714 46.2068 47.0499 47.7919 47.681 48.8858C48.0409 49.346 48.8016 49.8764 49.5044 50.0206C50.3435 50.2074 51.0088 50.038 51.5745 49.7455C52.5637 49.1738 53.3168 48.169 53.2793 47.053C53.4109 45.2649 52.2199 43.8728 50.163 44.0226ZM48.8511 47.5307C48.8041 46.6389 49.6085 45.4143 50.375 45.3541C51.3686 45.2755 52.0943 46.4076 51.7207 47.5508C51.5296 48.1642 50.8752 48.6303 50.4304 48.7103C49.4866 48.8504 48.8908 48.2247 48.8511 47.5307ZM55.8728 47.3959C55.7869 46.4719 56.4572 44.7827 55.3213 44.8745C54.6677 44.9325 54.6056 45.9254 54.4943 46.7161C54.3486 47.7003 54.1201 48.535 53.9202 49.4994C53.7306 50.3663 53.4684 51.2537 54.4928 51.1503C54.8761 51.1202 55.4628 49.9571 55.7434 49.5643C56.2343 48.912 56.1354 48.9157 56.9281 48.0699C57.2476 47.7094 57.5816 47.2095 58.0191 47.1992C58.0368 47.8345 57.9262 48.2171 57.7724 48.8766C57.6033 49.5486 57.4561 50.2792 57.4262 50.9659C57.6937 51.5008 58.6639 51.3775 58.8947 50.9231C58.9665 50.7758 58.9459 50.4358 58.9722 50.1852C59.093 49.1703 59.6079 47.6196 59.6253 46.6501C59.6304 46.2002 59.4618 45.6616 59.3049 45.5466C58.8 45.1275 58.2174 45.4463 57.8276 45.6728C57.3162 45.9851 56.8795 46.3897 56.5249 46.8169C56.3469 47.0375 56.1483 47.1856 55.8728 47.3959ZM66.7941 49.4729C67.2352 49.294 67.7511 49.475 68.2905 49.4331C68.802 49.3883 69.0019 48.4239 68.3973 48.1492C67.723 47.8672 67.4615 48.079 67.035 47.8512C66.8502 47.4658 67.1958 45.7847 67.3233 45.3758C67.5342 44.7082 67.8792 43.4353 68.5336 43.504C68.9234 43.545 68.9667 44.0704 69.0628 44.3621C69.1588 44.6537 69.2402 45.0846 69.5033 45.1263C69.8133 45.2574 70.2984 45.1958 70.4522 44.8037C70.5914 44.5509 70.6001 43.9324 70.3787 43.3601C70.0803 42.5827 69.5079 42.0017 68.5253 42.1095C67.5148 42.2145 66.9235 42.8843 66.4019 43.829C65.9338 44.6667 65.7434 45.4068 65.5193 46.4672C65.4468 46.7552 65.4674 47.3627 65.3246 47.5166C65.1495 47.7093 65.3114 47.6419 64.9201 47.6148C64.5566 47.5907 64.1309 47.7571 64.0401 48.0854C63.9822 48.2342 63.906 48.4233 64.079 48.6526C64.5151 49.1911 64.5026 48.9083 65.1673 49.1471C65.2773 49.9751 64.8789 51.355 64.9948 52.1274C65.0718 52.6 66.0838 52.7486 66.3373 52.2122C66.6332 51.5394 66.5736 49.8298 66.7941 49.4729ZM72.5028 46.3706C72.0499 46.3934 71.8111 46.5232 71.4506 46.7387C70.8776 47.1008 70.7919 47.2466 70.419 47.7142C69.7112 48.5548 69.3898 50.1399 70.0209 51.2338C70.3807 51.694 71.1415 52.2244 71.8442 52.3687C72.6833 52.5554 73.3487 52.386 73.9143 52.0935C74.9035 51.5218 75.6567 50.517 75.6191 49.401C75.7507 47.6129 74.5597 46.2208 72.5028 46.3706ZM71.1909 49.8787C71.1439 48.9869 71.9483 47.7623 72.7148 47.7021C73.7085 47.6235 74.4341 48.7556 74.0606 49.8988C73.8694 50.5122 73.2151 50.9783 72.7703 51.0583C71.8265 51.1984 71.2306 50.5727 71.1909 49.8787ZM78.4438 47.0091C78.3331 46.8567 78.1191 46.7498 77.9088 46.7417C77.154 46.6906 77.1292 47.1947 76.8956 48.2119C76.6517 49.3265 76.4124 51.2018 76.1949 52.3332C76.1224 52.6212 76.0331 52.9356 76.0712 53.1085C76.1233 53.2829 76.3981 53.4808 76.6055 53.5166C77.1316 53.6001 77.3991 53.6 77.5881 53.1413C77.8166 52.5741 77.9681 50.9993 78.0786 50.3493C78.1035 50.1126 79.1176 49.5716 79.706 49.4645C79.9515 49.4059 80.5663 49.3156 80.866 49.2767C81.1518 49.2364 81.7006 48.9703 81.6756 48.4046C81.6477 48.1342 81.3326 47.9181 81.0431 47.8595C80.5492 47.7372 79.9549 47.9 79.5644 47.9997C79.2017 48.1023 78.6814 48.4981 78.3451 48.3502C78.4212 47.8936 78.5472 47.4986 78.4438 47.0091ZM7.1917 61.2835C7.83146 61.4915 8.25204 61.2401 8.39705 60.6641C8.66435 59.5941 8.72932 58.0384 8.91889 56.6365C9.09534 55.6275 9.34796 54.4293 9.54419 53.366C9.7126 52.5672 10.1799 51.0678 9.48151 50.8818C9.26605 50.7888 8.7978 50.824 8.68131 50.9948C8.28645 51.6712 8.39888 53.682 7.76727 54.0661C6.87618 53.9724 6.08477 54.0019 5.33517 54.3032C4.65665 54.5979 4.15695 55.0662 3.77087 55.6591C3.4551 56.1186 3.21707 56.91 3.3359 57.6545C3.45766 58.3712 4.12388 59.131 4.70139 59.5295C5.33312 59.9479 6.07545 59.9837 6.82367 60.2312C6.97394 60.5426 6.88756 61.0966 7.1917 61.2835ZM7.36107 57.2611C7.27394 57.6884 7.1942 58.5809 7.02278 58.8726C6.35228 58.957 5.38417 58.3907 5.03601 57.8192C4.46135 56.8578 5.287 55.565 6.32757 55.5759C6.97389 55.5875 7.32562 55.4555 7.50666 55.742C7.57339 56.0447 7.44967 56.82 7.36107 57.2611ZM11.9469 52.422C11.5622 52.466 11.1856 52.8347 11.1834 53.2567C11.1792 54.1009 12.6939 54.0208 12.7692 53.17C12.808 52.6673 12.4444 52.3757 11.9469 52.422ZM11.5728 54.7758C10.8986 54.7612 10.6093 55.505 10.4372 56.2049C10.2292 57.1121 9.99855 58.1014 9.78618 59.0504C9.6595 59.5861 9.47565 60.1299 9.68747 60.3915C9.98504 60.7747 10.8776 60.5869 11.1135 60.2176C11.2834 59.9398 11.3236 59.1557 11.4041 58.6574C11.5396 57.7707 11.7622 56.9917 11.9988 56.2142C12.1204 55.8609 12.2823 55.526 12.2595 55.3406C12.2279 54.9713 11.7706 54.7684 11.5728 54.7758ZM15.634 54.4706C14.8734 54.4751 14.1523 54.6386 13.5867 55.1986C13.3654 55.4287 13.2314 56.034 13.2212 56.399C13.2015 56.9881 13.738 57.5091 14.1748 57.9069C14.5354 58.2263 15.431 58.8132 15.2845 59.4031C14.3291 60.457 13.9002 59.3139 13.1147 59.5551C12.9696 59.5962 12.7865 59.7318 12.7454 59.8542C12.5455 60.5511 12.7214 60.7526 13.8771 61.1415C14.3666 61.3056 15.1441 61.2747 15.5618 61.0511C16.1428 60.7462 16.6498 60.2082 16.7582 59.4454C16.8943 58.418 16.0786 57.741 15.5546 57.2354C15.4395 57.1248 14.7535 56.6867 14.8224 56.2998C14.897 55.8572 15.3557 55.7787 16.0996 56.068C16.3649 56.2226 16.9541 56.7772 17.256 56.5837C17.404 56.5148 17.7396 56.2685 17.7359 55.9021C17.7314 55.409 17.225 55.0038 16.6915 54.7225C16.4247 54.5819 15.7051 54.464 15.634 54.4706ZM23.2465 60.6059C23.0097 59.7786 22.3487 60.1737 21.5434 60.2017C20.4552 60.2422 19.8484 59.5871 19.6782 58.795C19.5206 58.0183 20.4877 57.1205 21.5033 57.1005C21.8837 57.0983 22.245 57.277 22.7271 57.2432C23.1089 57.227 23.5053 56.8042 23.4371 56.248C23.363 55.7475 21.9457 55.5704 21.4943 55.5792C20.2837 55.5787 19.2374 56.1585 18.6096 57.1765C18.3114 57.7364 18.0661 58.5974 18.1937 59.2584C18.5463 60.5905 19.4588 61.4185 20.89 61.597C22.1819 61.761 23.4532 61.3174 23.2465 60.6059ZM27.0532 55.6708C26.6003 55.6936 26.3614 55.8233 26.0009 56.0388C25.428 56.4009 25.3422 56.5468 24.9693 57.0143C24.2616 57.855 23.9401 59.4401 24.5712 60.534C24.9311 60.9942 25.6918 61.5246 26.3946 61.6688C27.2337 61.8556 27.899 61.6862 28.4647 61.3937C29.4539 60.822 30.207 59.8172 30.1695 58.7011C30.3011 56.9131 29.1101 55.521 27.0532 55.6708ZM25.7413 59.1789C25.6943 58.2871 26.4987 57.0625 27.2652 57.0023C28.2588 56.9237 28.9845 58.0557 28.6109 59.199C28.4198 59.8123 27.7654 60.2785 27.3207 60.3584C26.3768 60.4986 25.781 59.8728 25.7413 59.1789ZM32.9157 60.8057C32.8914 60.0993 32.7703 58.9745 32.675 58.2747C32.628 57.9178 32.5678 57.1513 32.4087 56.9235C32.1266 56.5278 31.4084 56.6635 31.1535 56.9464C31.089 57.0241 30.9176 57.3158 31.0144 57.7342C31.0218 58.467 31.5776 60.4117 31.7661 61.6985C31.8409 62.3257 31.8703 62.8497 32.2917 62.9925C32.9798 63.276 33.5975 62.3555 33.9425 61.885C35.0803 60.3012 35.5382 59.561 36.1148 58.7629C36.4291 58.3173 36.8694 58.0117 36.7264 57.3632C36.6289 56.818 36.0712 56.6327 35.6367 56.8827C35.1282 57.1671 34.9033 57.8332 34.5187 58.4122C33.9846 59.074 33.4711 60.0758 32.9157 60.8057ZM38.4542 61.5427C38.8001 61.4664 39.3885 61.3594 39.8333 61.2794C40.4928 61.1657 40.8335 61.0045 41.4835 60.8475C41.8726 60.7617 42.1869 60.3162 42.1986 59.9373C42.2249 59.6867 42.0885 59.1093 42.0086 58.9319C41.5577 57.4628 40.4584 56.939 39.0442 57.269C38.4697 57.3775 37.7861 57.8547 37.3861 58.4461C36.8761 59.0119 36.6308 59.873 36.7695 61.0982C37.0254 62.2794 37.345 62.7212 38.4245 63.2992C39.0951 63.7498 40.4786 63.7122 41.2428 63.2717C41.5 63.1016 41.615 62.6773 41.3423 62.3249C40.8469 61.949 40.378 62.6599 39.4656 62.3669C38.8662 62.1772 38.5173 62.0139 38.4542 61.5427ZM38.7308 58.9112C39.6826 58.2933 40.5122 58.4368 40.763 59.533C40.6685 59.7624 40.2398 59.9567 39.9123 59.9926C39.4147 60.0389 38.5361 60.2281 38.2899 60.16C38.2048 59.8976 38.3381 59.1655 38.7308 58.9112ZM45.0683 57.5783C44.9576 57.4259 44.7436 57.319 44.5333 57.311C43.7785 57.2598 43.7537 57.7639 43.5201 58.7811C43.2762 59.8957 43.0369 61.771 42.8194 62.9024C42.7469 63.1904 42.6576 63.5048 42.6957 63.6778C42.7478 63.8522 43.0226 64.05 43.23 64.0858C43.7561 64.1693 44.0236 64.1693 44.2126 63.7105C44.4411 63.1433 44.5926 61.5685 44.7031 60.9185C44.728 60.6818 45.7421 60.1408 46.3305 60.0337C46.576 59.9751 47.1908 59.8848 47.4905 59.846C47.7763 59.8056 48.3251 59.5395 48.3001 58.9738C48.2722 58.7034 47.9571 58.4873 47.6676 58.4287C47.1737 58.3064 46.5794 58.4692 46.1889 58.5689C45.8261 58.6716 45.3059 59.0673 44.9695 58.9194C45.0457 58.4628 45.1717 58.0678 45.0683 57.5783ZM53.7486 60.1095C54.2593 60.2055 54.91 59.6404 55.9718 59.5831C56.2876 59.6585 56.6849 60.4322 56.2871 60.8691C56.035 61.1241 54.8464 60.9147 54.1422 61.0519C53.7392 61.1362 53.2211 61.3774 53.0057 61.5518C52.6672 61.8259 52.254 62.2752 52.3296 63.0292C52.3377 63.3538 52.5854 63.6755 52.8126 63.9246C53.3565 64.6434 53.9567 64.9599 54.7445 65.3665C54.971 65.4888 55.5316 65.6463 55.7727 65.6294C56.1112 65.6227 56.5259 65.1595 56.6526 64.8913C56.9544 64.1629 57.1742 63.4117 57.4122 62.6203C57.5982 61.9219 57.9124 60.9413 57.8529 60.0342C57.8176 59.2984 57.4145 58.5804 56.9323 58.3467C56.0756 58.0596 55.3626 58.2802 54.4386 58.6336C53.9726 58.7817 53.4157 58.9906 53.4268 59.5549C53.4422 59.8099 53.4943 59.9843 53.7486 60.1095ZM55.0599 62.2322C55.3259 62.2461 55.8623 62.2321 56.0272 62.4043C55.976 62.8916 55.8317 63.8619 55.3884 63.9279C54.7303 63.7602 53.7307 63.3595 53.8017 62.5505C54.0398 62.294 54.5278 62.2045 55.0599 62.2322ZM66.2513 59.9455C66.1977 58.9827 66.4878 58.6331 66.6628 57.9054C66.8394 57.4312 66.9609 57.078 66.2604 57.0466C65.1546 56.9867 65.1694 57.9173 64.9592 58.7117C64.8699 59.0261 64.7124 59.8542 64.4582 59.9964C64.2193 60.1261 63.2601 60.0112 62.9604 60.0501C62.6702 60.1322 62.4042 60.3858 62.3346 60.646C62.2402 60.8754 62.2922 61.3172 62.5685 61.5011C62.9518 61.7385 63.9718 61.4093 64.2401 61.8035C64.0995 62.6052 64.0183 63.2442 63.8791 63.7645C63.8389 64.0137 63.5606 65.0543 63.4925 65.3005C63.4412 65.5203 63.009 66.6856 63.0692 66.9171C63.1461 67.1223 63.5785 67.2944 63.8892 67.2848C64.5956 67.2605 64.8416 65.7238 64.9888 65.2607C65.0599 64.9866 65.3118 63.9292 65.3689 63.6536C65.4458 63.3238 65.7086 61.7608 65.9966 61.5658C66.2706 61.3694 67.4021 61.5868 67.8571 61.4094C68.1656 61.287 68.3751 60.9008 68.3311 60.5161C68.2606 59.847 66.5518 60.3009 66.2513 59.9455ZM70.7801 60.2808C70.6695 60.1284 70.4555 60.0214 70.2452 60.0134C69.4904 59.9622 69.4655 60.4664 69.2319 61.4835C68.9881 62.5981 68.7488 64.4734 68.5313 65.6049C68.4588 65.8929 68.3695 66.2073 68.4076 66.3802C68.4596 66.5546 68.7345 66.7524 68.9419 66.7883C69.468 66.8717 69.7355 66.8717 69.9245 66.4129C70.153 65.8457 70.3045 64.2709 70.415 63.6209C70.4399 63.3842 71.454 62.8432 72.0424 62.7362C72.2879 62.6775 72.9027 62.5873 73.2024 62.5484C73.4882 62.508 74.037 62.2419 74.012 61.6762C73.9841 61.4058 73.669 61.1897 73.3795 61.1311C72.8856 61.0088 72.2913 61.1716 71.9007 61.2713C71.538 61.374 71.0178 61.7698 70.6814 61.6218C70.7576 61.1653 70.8835 60.7703 70.7801 60.2808ZM75.7644 65.4642C76.1102 65.3879 76.6986 65.2808 77.1434 65.2009C77.8029 65.0872 78.1437 64.9259 78.7936 64.769C79.1827 64.6832 79.497 64.2376 79.5087 63.8588C79.535 63.6081 79.3986 63.0307 79.3187 62.8534C78.8678 61.3842 77.7686 60.8604 76.3543 61.1904C75.7798 61.299 75.0962 61.7761 74.6962 62.3675C74.1863 62.9333 73.9409 63.7944 74.0796 65.0196C74.3355 66.2008 74.6551 66.6427 75.7346 67.2207C76.4052 67.6712 77.7887 67.6336 78.5529 67.1931C78.8101 67.0231 78.9251 66.5988 78.6524 66.2463C78.157 65.8705 77.6881 66.5814 76.7757 66.2884C76.1763 66.0987 75.8275 65.9353 75.7644 65.4642ZM76.0409 62.8327C76.9927 62.2148 77.8223 62.3583 78.0731 63.4545C77.9786 63.6839 77.5499 63.8781 77.2224 63.9141C76.7248 63.9603 75.8462 64.1495 75.6 64.0814C75.515 63.8191 75.6482 63.087 76.0409 62.8327ZM82.1472 64.2346C82.0614 63.3106 82.7316 61.6214 81.5958 61.7132C80.9421 61.7712 80.88 62.7641 80.7687 63.5548C80.6231 64.539 80.3946 65.3737 80.1947 66.338C80.005 67.205 79.7428 68.0924 80.7672 67.9889C81.1505 67.9588 81.7373 66.7958 82.0179 66.403C82.5087 65.7507 82.4098 65.7544 83.2026 64.9086C83.522 64.548 83.8561 64.0482 84.2936 64.0379C84.3112 64.6732 84.2007 65.0558 84.0469 65.7153C83.8777 66.3873 83.7305 67.1179 83.7006 67.8045C83.9681 68.3394 84.9383 68.2162 85.1691 67.7618C85.2409 67.6145 85.2203 67.2745 85.2467 67.0239C85.3674 66.0089 85.8823 64.4583 85.8998 63.4888C85.9048 63.0388 85.7362 62.5003 85.5794 62.3852C85.0744 61.9662 84.4919 62.285 84.1021 62.5115C83.5906 62.8238 83.1539 63.2283 82.7993 63.6556C82.6213 63.8762 82.4227 64.0243 82.1472 64.2346ZM90.378 70.0267C91.0178 70.2347 91.4384 69.9833 91.5834 69.4073C91.8507 68.3374 91.9156 66.7816 92.1052 65.3798C92.2817 64.3707 92.5343 63.1725 92.7305 62.1092C92.8989 61.3105 93.3662 59.8111 92.6678 59.6251C92.4524 59.532 91.9841 59.5673 91.8676 59.738C91.4728 60.4145 91.5852 62.4252 90.9536 62.8093C90.0625 62.7157 89.2711 62.7451 88.5215 63.0464C87.843 63.3411 87.3433 63.8094 86.9572 64.4023C86.6414 64.8618 86.4034 65.6533 86.5222 66.3978C86.644 67.1144 87.3102 67.8742 87.8877 68.2728C88.5194 68.6911 89.2618 68.7269 90.01 68.9745C90.1603 69.2859 90.0739 69.8399 90.378 70.0267ZM90.5474 66.0044C90.4603 66.4316 90.3805 67.3242 90.2091 67.6158C89.5386 67.7002 88.5705 67.1339 88.2223 66.5624C87.6477 65.6011 88.4733 64.3083 89.5139 64.3191C90.1602 64.3307 90.5119 64.1988 90.693 64.4853C90.7597 64.7879 90.636 65.5632 90.5474 66.0044Z" fill="black"/>
<defs>
<clipPath id="clip0_2_237">
<rect width="28.3944" height="34.4457" fill="white" transform="translate(52.9991 27.0134) rotate(-72.0565)"/>
</clipPath>
</defs>
</svg>
