<svg width="100" height="68" viewBox="0 0 100 68" fill="none" xmlns="http://www.w3.org/2000/svg">
<g clip-path="url(#clip0_2_416)">
<path d="M41.3506 37.0051C40.475 35.5357 39.059 35.174 37.7113 35.01C35.8335 34.8069 33.9136 34.8027 32.062 34.9963C23.5555 36.1116 16.7353 40.2985 11.4854 47.0067C10.1568 48.717 9.05097 50.6458 7.72567 52.6868C6.44865 50.8022 6.48992 48.3541 5.27774 46.3366C4.62365 47.1145 4.7862 47.9068 4.90327 48.5673C5.39426 51.2751 5.92959 54.0045 6.53091 56.7113C6.83101 58.0096 7.36439 58.3795 8.55186 57.9716C11.0371 57.1547 13.03 55.6587 14.4645 53.5064C14.5077 53.4178 14.4395 53.22 14.3702 52.9119C12.2251 52.4687 11.4798 55.1218 9.40638 55.2072C10.1882 51.804 12.1471 49.1396 14.3289 46.6937C16.6199 44.1365 19.1121 41.8421 22.1184 40.1824C25.0587 38.5454 28.2048 37.6121 31.5078 36.9199C34.7881 36.1618 38.033 36.264 41.3506 37.0051Z" fill="black"/>
</g>
<path d="M15.6718 5.05708C15.2648 4.56784 15.2157 3.88698 14.9674 3.14899C14.8663 2.84877 14.745 2.51024 14.613 2.15852C14.5496 1.95879 14.3987 1.32757 14.2549 1.20385C13.7887 0.817011 12.988 1.43268 12.9378 1.91005C12.909 2.18454 13.0711 2.4791 13.1842 2.78057C13.2879 3.05693 13.4104 3.38352 13.494 3.62156C13.6775 4.17176 14.0079 4.7012 14.1519 5.28344C14.2317 5.55728 14.4095 5.81729 14.4893 6.09113C14.6169 6.59925 14.5573 7.0515 14.4525 7.70412C14.3646 8.31026 13.7946 9.831 14.5125 10.003C14.9145 10.0814 15.2656 9.84082 15.3705 9.64672C15.4213 9.50727 15.5023 9.0814 15.5512 8.84522C15.6454 8.40867 15.732 8.04373 15.7903 7.60341C15.8374 7.27051 15.9164 6.74791 16 6.52743C16.0703 6.31763 16.248 6.11912 16.4282 5.89674C16.5701 5.69447 16.7108 5.50413 16.8634 5.31504C17.6264 4.36962 18.0208 4.06116 18.8466 3.2068C19.0231 3.02022 19.6499 2.56726 19.565 2.11189C19.4839 1.62072 18.869 1.61642 18.6618 1.7515C18.5707 1.81432 18.3446 2.12841 18.2341 2.26159C18.1079 2.42932 17.9458 2.59328 17.8246 2.71327C17.3204 3.26357 16.9084 3.73911 16.428 4.29192C16.195 4.55702 16.0116 4.92386 15.6718 5.05708ZM20.0285 4.45316C19.6403 4.4727 19.4356 4.5839 19.1266 4.76861C18.6355 5.07898 18.562 5.20398 18.2423 5.60477C17.6357 6.3253 17.3602 7.68395 17.9011 8.62163C18.2096 9.01603 18.8616 9.47068 19.464 9.59432C20.1832 9.75438 20.7535 9.60919 21.2384 9.3585C22.0862 8.86844 22.7318 8.00721 22.6996 7.0506C22.8124 5.518 21.7916 4.32475 20.0285 4.45316ZM18.904 7.4601C18.8637 6.69569 19.5532 5.64602 20.2102 5.59441C21.0619 5.52707 21.6839 6.4974 21.3637 7.4773C21.1999 8.00305 20.639 8.40261 20.2578 8.47114C19.4488 8.59123 18.938 8.05491 18.904 7.4601ZM24.7609 5.55387C23.7277 5.397 23.5394 6.2701 23.3951 7.18402C23.3455 7.5408 23.247 8.36301 23.2521 8.77379C23.2667 9.66821 23.8063 10.1593 24.4344 10.3822C26.1587 10.853 26.928 10.0772 27.4516 8.76873C27.6463 8.29448 27.7743 7.76496 27.8364 7.28885C27.9086 6.71726 27.9901 5.71227 27.6653 5.47301C27.4643 5.31916 26.867 5.37704 26.7338 5.72503C26.597 6.10883 26.5789 7.08428 26.476 7.60437C26.3473 8.25448 25.9097 9.31857 25.4248 9.34C24.0078 9.50479 24.6362 7.54373 24.8308 6.61096C24.9174 6.24602 25.0618 5.79062 24.7609 5.55387ZM33.4048 3.22866C32.8911 3.29532 32.5583 4.16531 33.1173 4.35679C33.5715 4.51312 34.2171 4.1104 34.1517 3.58468C34.1115 3.2788 33.7729 3.17082 33.4048 3.22866ZM33.0454 6.07468C32.5686 6.13317 32.5015 6.65702 32.403 7.02071C32.3615 7.18528 32.2291 7.8712 32.1833 8.19217C32.0773 9.08599 31.8971 9.76688 31.685 10.6375C31.3768 11.8479 31.0762 13.4452 30.1742 13.7607C29.8991 13.8524 28.9777 13.7797 28.8999 14.2904C28.8233 14.7891 29.4785 15.0993 30.0042 15.0339C30.187 15.0169 30.4835 14.9515 30.6725 14.8749C30.8867 14.7888 31.1059 14.6549 31.2352 14.572C31.5204 14.3848 32.0297 13.7868 32.1948 13.4783C32.3468 13.1806 32.4133 12.7773 32.5514 12.3816C32.6594 12.043 32.746 11.6781 32.8314 11.3251C32.9927 10.5939 33.2055 9.832 33.3285 9.12096C33.4233 8.56382 33.5143 8.04247 33.6172 7.52238C33.6737 7.2146 33.8513 6.78683 33.7445 6.42568C33.6741 6.17696 33.3644 6.02375 33.0454 6.07468ZM35.8328 6.71756C34.7995 6.5607 34.6112 7.4338 34.4669 8.34772C34.4173 8.70449 34.3188 9.5267 34.3239 9.93748C34.3385 10.8319 34.8781 11.323 35.5063 11.5459C37.2305 12.0167 37.9998 11.2409 38.5235 9.93243C38.7181 9.45818 38.8461 8.92866 38.9083 8.45254C38.9804 7.88095 39.0619 6.87597 38.7371 6.63671C38.5361 6.48285 37.9388 6.54073 37.8057 6.88873C37.6688 7.27252 37.6507 8.24798 37.5478 8.76807C37.4192 9.41818 36.9815 10.4823 36.4966 10.5037C35.0796 10.6685 35.7081 8.70743 35.9026 7.77466C35.9893 7.40971 36.1337 6.95431 35.8328 6.71756ZM41.8594 6.74769C41.2075 6.75156 40.5894 6.89172 40.1046 7.37167C39.9149 7.56893 39.8001 8.08777 39.7913 8.40057C39.7745 8.90557 40.2343 9.35208 40.6087 9.69309C40.9178 9.96689 41.6854 10.4699 41.5599 10.9755C40.741 11.8789 40.3734 10.8991 39.7001 11.1058C39.5757 11.141 39.4187 11.2573 39.3835 11.3622C39.2121 11.9595 39.3629 12.1322 40.3535 12.4656C40.7731 12.6062 41.4395 12.5797 41.7975 12.3881C42.2956 12.1267 42.7301 11.6656 42.823 11.0118C42.9397 10.1311 42.2405 9.55088 41.7913 9.11755C41.6927 9.02272 41.1047 8.64721 41.1637 8.31556C41.2277 7.93617 41.6209 7.8689 42.2585 8.1169C42.4859 8.2494 42.991 8.7248 43.2497 8.55893C43.3766 8.49987 43.6642 8.28878 43.661 7.97473C43.6572 7.55201 43.2231 7.20474 42.7658 6.96361C42.5372 6.84305 41.9204 6.74202 41.8594 6.74769ZM47.4616 7.46923C47.4157 6.6439 47.6643 6.34425 47.8144 5.72052C47.9657 5.31411 48.0699 5.01134 47.4694 4.98443C46.5216 4.93307 46.5343 5.73077 46.3541 6.41167C46.2775 6.68114 46.1426 7.39092 45.9247 7.51281C45.7199 7.62402 44.8977 7.52553 44.6408 7.55886C44.3921 7.62925 44.1641 7.84661 44.1045 8.0696C44.0235 8.26621 44.0682 8.64495 44.305 8.80257C44.6335 9.00603 45.5078 8.72387 45.7377 9.06176C45.6172 9.74893 45.5476 10.2966 45.4283 10.7426C45.3938 10.9562 45.1553 11.8481 45.0969 12.0592C45.053 12.2476 44.6825 13.2464 44.7341 13.4449C44.8001 13.6207 45.1707 13.7683 45.437 13.7601C46.0425 13.7392 46.2533 12.4221 46.3795 12.0251C46.4404 11.7901 46.6563 10.8838 46.7053 10.6476C46.7712 10.3649 46.9965 9.02513 47.2433 8.85801C47.4782 8.68964 48.448 8.87604 48.838 8.72397C49.1024 8.61904 49.282 8.288 49.2443 7.95825C49.1839 7.38479 47.7192 7.77382 47.4616 7.46923ZM54.432 10.4461C54.3584 9.6541 54.9328 8.20622 53.9593 8.28489C53.399 8.3346 53.3458 9.18569 53.2504 9.86344C53.1255 10.707 52.9297 11.4225 52.7583 12.2491C52.5958 12.9921 52.371 13.7528 53.2491 13.6641C53.5776 13.6383 54.0806 12.6414 54.3211 12.3047C54.7418 11.7456 54.657 11.7488 55.3365 11.0239C55.6103 10.7148 55.8967 10.2864 56.2717 10.2775C56.2868 10.8221 56.192 11.15 56.0602 11.7153C55.9152 12.2913 55.7891 12.9175 55.7634 13.5061C55.9927 13.9646 56.8243 13.8589 57.0221 13.4694C57.0837 13.3432 57.066 13.0517 57.0886 12.8369C57.1921 11.967 57.6335 10.6378 57.6484 9.80684C57.6527 9.42118 57.5082 8.95955 57.3738 8.86095C56.941 8.50174 56.4417 8.77505 56.1075 8.96919C55.6692 9.23683 55.2949 9.58361 54.9909 9.94984C54.8383 10.1389 54.6681 10.2658 54.432 10.4461ZM59.8113 12.6405C60.1078 12.5751 60.6121 12.4833 60.9934 12.4148C61.5587 12.3173 61.8507 12.1791 62.4078 12.0446C62.7413 11.9711 63.0107 11.5891 63.0207 11.2644C63.0433 11.0496 62.9264 10.5546 62.8579 10.4026C62.4714 9.14335 61.5292 8.6944 60.317 8.97724C59.8246 9.07028 59.2386 9.47927 58.8957 9.98621C58.4587 10.4712 58.2484 11.2092 58.3672 12.2594C58.5866 13.2719 58.8605 13.6506 59.7858 14.146C60.3606 14.5322 61.5464 14.5 62.2015 14.1224C62.4219 13.9767 62.5205 13.613 62.2868 13.3109C61.8621 12.9887 61.4603 13.5981 60.6782 13.3469C60.1644 13.1843 59.8654 13.0443 59.8113 12.6405ZM60.0484 10.3849C60.8642 9.85525 61.5753 9.97825 61.7902 10.9179C61.7092 11.1145 61.3418 11.281 61.061 11.3118C60.6346 11.3514 59.8815 11.5136 59.6704 11.4552C59.5975 11.2304 59.7118 10.6029 60.0484 10.3849ZM65.1608 13.2027C65.4572 13.1373 65.9616 13.0455 66.3428 12.977C66.9081 12.8796 67.2002 12.7413 67.7573 12.6068C68.0908 12.5333 68.3602 12.1514 68.3702 11.8266C68.3928 11.6118 68.2758 11.1169 68.2074 10.9649C67.8209 9.7056 66.8786 9.25665 65.6664 9.53949C65.174 9.63253 64.5881 10.0415 64.2452 10.5485C63.8081 11.0334 63.5978 11.7715 63.7167 12.8217C63.936 13.8341 64.21 14.2128 65.1352 14.7083C65.71 15.0945 66.8959 15.0623 67.5509 14.6847C67.7714 14.5389 67.8699 14.1752 67.6362 13.8731C67.2116 13.551 66.8097 14.1603 66.0277 13.9092C65.5138 13.7466 65.2148 13.6066 65.1608 13.2027ZM65.3978 10.9471C66.2137 10.4175 66.9247 10.5405 67.1397 11.4801C67.0587 11.6767 66.6912 11.8432 66.4105 11.8741C65.984 11.9137 65.2309 12.0759 65.0199 12.0175C64.947 11.7926 65.0612 11.1651 65.3978 10.9471ZM72.1858 16.5353C72.7342 16.7136 73.0947 16.4981 73.219 16.0044C73.4481 15.0873 73.5038 13.7538 73.6663 12.5522C73.8175 11.6873 74.034 10.6603 74.2022 9.74887C74.3466 9.06421 74.7471 7.77903 74.1485 7.61959C73.9638 7.53985 73.5625 7.57006 73.4626 7.71642C73.1242 8.29622 73.2205 10.0197 72.6791 10.349C71.9154 10.2687 71.237 10.2939 70.5945 10.5522C70.0129 10.8047 69.5846 11.2062 69.2537 11.7144C68.983 12.1082 68.779 12.7866 68.8808 13.4248C68.9852 14.039 69.5562 14.6903 70.0512 15.0319C70.5927 15.3905 71.229 15.4212 71.8703 15.6334C71.9992 15.9003 71.9251 16.3751 72.1858 16.5353ZM72.331 13.0876C72.2563 13.4538 72.1879 14.2188 72.041 14.4688C71.4663 14.5411 70.6365 14.0557 70.3381 13.5659C69.8455 12.7419 70.5532 11.6338 71.4451 11.643C71.9991 11.653 72.3006 11.5399 72.4558 11.7855C72.513 12.0449 72.4069 12.7094 72.331 13.0876ZM80.2476 10.7824C79.8594 10.802 79.6547 10.9132 79.3457 11.0979C78.8545 11.4083 78.7811 11.5333 78.4614 11.934C77.8548 12.6546 77.5793 14.0132 78.1202 14.9509C78.4287 15.3453 79.0807 15.8 79.6831 15.9236C80.4023 16.0837 80.9726 15.9385 81.4575 15.6878C82.3053 15.1977 82.9509 14.3365 82.9187 13.3799C83.0315 11.8473 82.0107 10.654 80.2476 10.7824ZM79.1231 13.7894C79.0828 13.025 79.7723 11.9753 80.4293 11.9237C81.281 11.8563 81.903 12.8267 81.5828 13.8066C81.4189 14.3323 80.8581 14.7319 80.4768 14.8004C79.6679 14.9205 79.1571 14.3842 79.1231 13.7894ZM85.1417 13.6739C85.0681 12.8818 85.6426 11.4339 84.669 11.5126C84.1088 11.5623 84.0555 12.4134 83.9602 13.0912C83.8353 13.9347 83.6394 14.6502 83.4681 15.4768C83.3055 16.2199 83.0808 16.9805 83.9589 16.8918C84.2874 16.866 84.7903 15.8692 85.0308 15.5325C85.4516 14.9734 85.3668 14.9765 86.0463 14.2516C86.3201 13.9425 86.6064 13.5141 86.9814 13.5052C86.9966 14.0498 86.9018 14.3777 86.77 14.943C86.625 15.519 86.4988 16.1453 86.4732 16.7338C86.7025 17.1923 87.5341 17.0866 87.7319 16.6972C87.7934 16.5709 87.7758 16.2795 87.7984 16.0647C87.9019 15.1947 88.3432 13.8656 88.3582 13.0346C88.3625 12.6489 88.218 12.1873 88.0835 12.0887C87.6507 11.7295 87.1514 12.0028 86.8173 12.1969C86.3789 12.4646 86.0046 12.8113 85.7007 13.1776C85.5481 13.3667 85.3779 13.4936 85.1417 13.6739ZM90.5211 15.8682C90.8175 15.8028 91.3219 15.711 91.7031 15.6425C92.2684 15.5451 92.5605 15.4068 93.1176 15.2723C93.4511 15.1988 93.7205 14.8168 93.7305 14.4921C93.7531 14.2773 93.6362 13.7824 93.5677 13.6304C93.1812 12.3711 92.239 11.9221 91.0267 12.205C90.5343 12.298 89.9484 12.707 89.6055 13.2139C89.1684 13.6989 88.9581 14.437 89.077 15.4871C89.2964 16.4996 89.5703 16.8783 90.4955 17.3738C91.0703 17.76 92.2562 17.7277 92.9113 17.3501C93.1317 17.2044 93.2303 16.8407 92.9965 16.5386C92.5719 16.2165 92.17 16.8258 91.388 16.5747C90.8741 16.4121 90.5751 16.272 90.5211 15.8682ZM90.7581 13.6126C91.574 13.083 92.285 13.206 92.5 14.1456C92.419 14.3422 92.0516 14.5087 91.7708 14.5395C91.3443 14.5792 90.5912 14.7413 90.3802 14.683C90.3073 14.4581 90.4215 13.8306 90.7581 13.6126ZM36.4641 18.3794C36.4181 17.5541 36.6668 17.2545 36.8168 16.6307C36.9681 16.2243 37.0723 15.9216 36.4719 15.8946C35.524 15.8433 35.5367 16.641 35.3566 17.3219C35.28 17.5913 35.1451 18.3011 34.9271 18.423C34.7224 18.5342 33.9002 18.4357 33.6433 18.4691C33.3945 18.5395 33.1666 18.7568 33.1069 18.9798C33.026 19.1764 33.0706 19.5552 33.3074 19.7128C33.636 19.9162 34.5102 19.6341 34.7402 19.972C34.6197 20.6591 34.5501 21.2069 34.4308 21.6528C34.3963 21.8664 34.1577 22.7583 34.0994 22.9694C34.0554 23.1578 33.685 24.1566 33.7365 24.3551C33.8025 24.5309 34.1731 24.6785 34.4394 24.6703C35.0449 24.6494 35.2558 23.3323 35.3819 22.9353C35.4428 22.7004 35.6588 21.794 35.7077 21.5578C35.7736 21.2751 35.9989 19.9353 36.2457 19.7682C36.4806 19.5999 37.4504 19.7862 37.8405 19.6342C38.1049 19.5292 38.2845 19.1982 38.2467 18.8685C38.1864 18.295 36.7217 18.684 36.4641 18.3794ZM39.5931 19.9752C40.0309 20.0575 40.5885 19.5731 41.4987 19.524C41.7694 19.5886 42.1099 20.2518 41.7689 20.6263C41.5529 20.8449 40.5341 20.6654 39.9305 20.7829C39.585 20.8552 39.141 21.0619 38.9563 21.2115C38.6662 21.4464 38.312 21.8315 38.3768 22.4778C38.3838 22.7561 38.5961 23.0318 38.7908 23.2453C39.257 23.8614 39.7715 24.1327 40.4467 24.4812C40.6408 24.586 41.1214 24.721 41.328 24.7065C41.6182 24.7008 41.9736 24.3038 42.0823 24.0739C42.3409 23.4495 42.5293 22.8057 42.7333 22.1273C42.8928 21.5287 43.1621 20.6882 43.1111 19.9106C43.0808 19.28 42.7353 18.6645 42.3219 18.4642C41.5876 18.2181 40.9765 18.4073 40.1845 18.7101C39.7851 18.8371 39.3077 19.0162 39.3172 19.4998C39.3305 19.7184 39.3751 19.8679 39.5931 19.9752ZM40.717 21.7947C40.945 21.8066 41.4048 21.7946 41.5462 21.9422C41.5022 22.3599 41.3786 23.1915 40.9986 23.2481C40.4346 23.1044 39.5778 22.7609 39.6386 22.0675C39.8427 21.8476 40.261 21.7709 40.717 21.7947ZM45.5164 19.4274C45.4861 19.026 45.5521 18.7434 45.6343 18.3056C45.7403 17.8703 45.9563 17.1931 45.8149 16.8163C45.6384 16.3151 44.9311 16.3856 44.6906 16.7223C44.4796 17.1224 44.3711 18.0401 44.2744 18.5005C44.0422 19.562 43.7497 20.7379 43.5344 21.9822C43.4384 22.5513 43.2018 23.3107 43.2062 23.8421C43.2076 24.2887 43.3326 24.8207 43.8992 24.9406C44.2642 25.0272 45.271 24.7469 45.5725 24.6338C46.0988 24.4478 46.5717 24.1958 47.0559 23.8365C47.6865 23.3477 48.4018 22.6265 48.4638 21.6919C48.5189 20.7083 47.728 20.0822 46.897 19.838C46.4284 19.7043 45.8085 19.7477 45.5164 19.4274ZM44.7116 22.2628C44.7982 21.6686 44.9532 20.9971 45.2697 20.7408C46.095 20.6948 47.1868 21.0992 47.1643 21.7725C47.1417 22.2166 46.5256 22.6827 46.1946 22.9617C45.848 23.2751 44.8079 23.7571 44.4499 23.7194L44.7116 22.2628ZM53.7953 22.4453C53.7217 21.6533 54.2962 20.2054 53.3226 20.2841C52.7624 20.3338 52.7091 21.1849 52.6138 21.8626C52.4889 22.7062 52.293 23.4216 52.1217 24.2483C51.9591 24.9913 51.7344 25.752 52.6125 25.6633C52.941 25.6375 53.4439 24.6406 53.6844 24.3039C54.1052 23.7448 54.0204 23.748 54.6999 23.023C54.9737 22.714 55.26 22.2855 55.635 22.2767C55.6502 22.8213 55.5554 23.1492 55.4236 23.7145C55.2786 24.2905 55.1524 24.9167 55.1268 25.5053C55.3561 25.9637 56.1877 25.8581 56.3855 25.4686C56.447 25.3424 56.4294 25.0509 56.452 24.8361C56.5555 23.9662 56.9968 22.637 57.0118 21.806C57.0161 21.4204 56.8716 20.9587 56.7371 20.8601C56.3043 20.5009 55.805 20.7742 55.4709 20.9684C55.0325 21.236 54.6582 21.5828 54.3543 21.949C54.2017 22.1381 54.0315 22.265 53.7953 22.4453ZM59.973 20.7176C59.5848 20.7371 59.3801 20.8483 59.0711 21.0331C58.58 21.3434 58.5065 21.4684 58.1868 21.8692C57.5802 22.5897 57.3047 23.9484 57.8456 24.8861C58.1541 25.2805 58.8061 25.7351 59.4085 25.8588C60.1277 26.0188 60.698 25.8736 61.1829 25.6229C62.0308 25.1329 62.6763 24.2716 62.6441 23.315C62.7569 21.7824 61.7361 20.5892 59.973 20.7176ZM58.8485 23.7245C58.8082 22.9601 59.4977 21.9105 60.1547 21.8588C61.0064 21.7915 61.6284 22.7618 61.3082 23.7417C61.1444 24.2675 60.5835 24.6671 60.2023 24.7356C59.3933 24.8557 58.8825 24.3193 58.8485 23.7245ZM64.6997 25.5461C64.5245 25.2623 64.5601 24.349 64.5763 23.7353C64.5976 23.3032 64.87 22.089 64.7412 21.8221C64.5923 21.5168 63.9648 21.4026 63.6948 21.6759C63.3312 22.0358 63.3321 23.9786 63.3466 24.4145C63.3863 25.0702 63.3965 25.8918 63.6271 26.3383C63.9343 26.9739 64.83 26.9474 65.3437 26.6515C65.6144 26.4869 66.2192 25.6696 66.287 25.713C66.3787 25.7588 66.6615 26.7417 66.8468 26.9301C67.2376 27.3453 67.8952 27.1731 68.4184 26.9023C69.6085 26.2551 70.789 24.2073 70.9043 22.1923C70.6762 21.7219 70.0048 21.7961 69.7705 22.0731C69.5501 22.4482 69.3776 23.516 69.1246 24.2013C68.8533 24.945 67.9955 25.9891 67.7248 25.9244C67.4195 25.8441 67.3828 24.1268 67.0724 23.6357C66.8852 23.3505 66.5661 23.4015 66.3149 23.4957C65.9029 23.742 65.3749 25.4361 64.6997 25.5461Z" fill="black"/>
<defs>
<clipPath id="clip0_2_416">
<rect width="28.3944" height="34.4457" fill="white" transform="matrix(-0.898735 -0.438492 -0.438492 0.898735 41.6211 36.4507)"/>
</clipPath>
</defs>
</svg>
