<svg width="100" height="70" viewBox="0 0 100 70" fill="none" xmlns="http://www.w3.org/2000/svg">
<g clip-path="url(#clip0_2_220)">
<path d="M40.9312 42.422C41.3813 44.0722 40.659 45.3427 39.8416 46.4267C38.6846 47.9196 37.3551 49.3047 35.9306 50.5034C29.2238 55.8535 21.476 57.8576 13.0029 56.9813C10.8494 56.7508 8.69337 56.2083 6.30414 55.7458C6.77462 57.9732 8.56574 59.6426 9.17692 61.9155C8.16293 61.8466 7.70531 61.1796 7.31106 60.6369C5.70239 58.4041 4.10893 56.1243 2.57757 53.8128C1.85118 52.6957 1.95504 52.055 3.07289 51.4832C5.38588 50.2609 7.84599 49.8645 10.3911 50.3255C10.4849 50.3559 10.58 50.5423 10.7537 50.806C9.58401 52.6579 7.15666 51.3531 5.65614 52.7866C8.64883 54.5857 11.9266 55.0246 15.2017 55.1515C18.6328 55.2769 22.0143 55.0751 25.2957 54.0627C28.515 53.082 31.3704 51.4648 34.1611 49.5673C36.9836 47.7319 39.1621 45.3248 40.9312 42.422Z" fill="black"/>
</g>
<path d="M20.1874 6.79539C19.7124 6.22462 19.6551 5.43028 19.3655 4.5693C19.2475 4.21904 19.106 3.82409 18.9521 3.41375C18.878 3.18073 18.702 2.4443 18.5342 2.29996C17.9904 1.84865 17.0562 2.56693 16.9977 3.12387C16.964 3.4441 17.1531 3.78775 17.2851 4.13947C17.406 4.46188 17.549 4.84291 17.6465 5.12063C17.8606 5.76252 18.2461 6.3802 18.414 7.05948C18.5072 7.37896 18.7146 7.6823 18.8077 8.00179C18.9565 8.59459 18.887 9.12222 18.7648 9.88361C18.6623 10.5908 17.9972 12.365 18.8348 12.5656C19.3038 12.6571 19.7134 12.3764 19.8357 12.15C19.8951 11.9873 19.9895 11.4904 20.0466 11.2149C20.1565 10.7056 20.2575 10.2798 20.3256 9.76612C20.3805 9.37773 20.4727 8.76803 20.5701 8.5108C20.6522 8.26604 20.8595 8.03444 21.0698 7.775C21.2354 7.53901 21.3995 7.31695 21.5775 7.09635C22.4677 5.99336 22.9278 5.63348 23.8913 4.63673C24.0972 4.41906 24.8284 3.8906 24.7294 3.35934C24.6348 2.78631 23.9174 2.7813 23.6756 2.93889C23.5693 3.01218 23.3056 3.37862 23.1766 3.53399C23.0294 3.72967 22.8403 3.92096 22.6989 4.06095C22.1106 4.70297 21.63 5.25777 21.0695 5.90271C20.7977 6.21199 20.5838 6.63998 20.1874 6.79539ZM25.2701 6.09083C24.8172 6.11361 24.5784 6.24336 24.2179 6.45885C23.6449 6.82094 23.5592 6.96678 23.1863 7.43436C22.4785 8.27499 22.1571 9.86007 22.7882 10.954C23.148 11.4142 23.9088 11.9446 24.6115 12.0888C25.4506 12.2756 26.116 12.1062 26.6816 11.8137C27.6708 11.242 28.424 10.2372 28.3864 9.12117C28.518 7.33313 27.327 5.94101 25.2701 6.09083ZM23.9582 9.59891C23.9112 8.70711 24.7156 7.48249 25.4821 7.42228C26.4758 7.34371 27.2014 8.47577 26.8279 9.61898C26.6367 10.2324 25.9824 10.6985 25.5376 10.7785C24.5938 10.9186 23.9979 10.2929 23.9582 9.59891ZM30.7913 7.37498C29.5858 7.19197 29.3661 8.21059 29.1978 9.27683C29.1399 9.69307 29.025 10.6523 29.031 11.1316C29.048 12.1751 29.6775 12.748 30.4104 13.008C32.422 13.5573 33.3195 12.6522 33.9304 11.1257C34.1575 10.5724 34.3069 9.95459 34.3794 9.39912C34.4635 8.73227 34.5586 7.55979 34.1797 7.28065C33.9452 7.10115 33.2483 7.16868 33.093 7.57467C32.9333 8.02243 32.9123 9.16046 32.7922 9.76724C32.6421 10.5257 32.1315 11.7671 31.5658 11.7921C29.9127 11.9844 30.6458 9.69649 30.8728 8.60826C30.9739 8.18249 31.1423 7.65119 30.7913 7.37498ZM40.8758 4.66224C40.2764 4.74001 39.8882 5.75499 40.5404 5.97839C41.0703 6.16077 41.8235 5.69094 41.7472 5.0776C41.7002 4.72074 41.3052 4.59476 40.8758 4.66224ZM40.4565 7.9826C39.9003 8.05083 39.822 8.662 39.707 9.0863C39.6587 9.2783 39.5042 10.0785 39.4507 10.453C39.3271 11.4958 39.1169 12.2902 38.8693 13.3059C38.5098 14.718 38.159 16.5816 37.1068 16.9496C36.7859 17.0566 35.7108 16.9718 35.6201 17.5676C35.5308 18.1494 36.2951 18.5113 36.9085 18.435C37.1217 18.4152 37.4676 18.3389 37.6881 18.2495C37.938 18.149 38.1937 17.9929 38.3446 17.8962C38.6773 17.6777 39.2715 16.98 39.4642 16.6202C39.6414 16.2728 39.719 15.8024 39.8802 15.3407C40.0062 14.9457 40.1072 14.5199 40.2068 14.1081C40.395 13.2551 40.6433 12.3661 40.7868 11.5366C40.8973 10.8866 41.0035 10.2784 41.1236 9.67158C41.1895 9.3125 41.3968 8.81344 41.2721 8.3921C41.19 8.10193 40.8287 7.92318 40.4565 7.9826ZM43.7084 8.73263C42.5029 8.54962 42.2833 9.56823 42.1149 10.6345C42.0571 11.0507 41.9422 12.01 41.9481 12.4892C41.9651 13.5327 42.5947 14.1056 43.3275 14.3657C45.3391 14.9149 46.2366 14.0098 46.8476 12.4833C47.0746 11.93 47.224 11.3122 47.2965 10.7568C47.3807 10.0899 47.4757 8.91743 47.0968 8.6383C46.8623 8.4588 46.1654 8.52632 46.0101 8.93232C45.8505 9.38008 45.8294 10.5181 45.7093 11.1249C45.5592 11.8833 45.0487 13.1248 44.4829 13.1498C42.8298 13.342 43.563 11.0541 43.7899 9.9659C43.891 9.54014 44.0595 9.00883 43.7084 8.73263ZM50.7395 8.76777C49.9789 8.77229 49.2579 8.93581 48.6922 9.49576C48.471 9.72589 48.337 10.3312 48.3268 10.6961C48.3071 11.2853 48.8435 11.8062 49.2804 12.2041C49.6409 12.5235 50.5365 13.1103 50.39 13.7003C49.4346 14.7542 49.0058 13.6111 48.2203 13.8523C48.0752 13.8933 47.892 14.0289 47.851 14.1513C47.651 14.8482 47.8269 15.0497 48.9826 15.4387C49.4721 15.6027 50.2496 15.5718 50.6673 15.3483C51.2484 15.0433 51.7554 14.5054 51.8637 13.7425C51.9998 12.7151 51.1841 12.0382 50.6601 11.5326C50.545 11.422 49.8591 10.9839 49.9279 10.597C50.0026 10.1543 50.4613 10.0759 51.2051 10.3652C51.4704 10.5198 52.0597 11.0744 52.3615 10.8809C52.5096 10.812 52.8451 10.5657 52.8414 10.1993C52.8369 9.70615 52.3305 9.30099 51.797 9.01969C51.5302 8.87903 50.8106 8.76116 50.7395 8.76777ZM57.2754 9.60957C57.2218 8.64669 57.5119 8.2971 57.687 7.56941C57.8635 7.09526 57.9851 6.74204 57.2845 6.71064C56.1787 6.65072 56.1935 7.58137 55.9833 8.37575C55.894 8.69013 55.7366 9.51821 55.4823 9.66042C55.2434 9.79016 54.2842 9.67526 53.9845 9.71414C53.6943 9.79626 53.4283 10.0499 53.3588 10.31C53.2643 10.5394 53.3164 10.9812 53.5927 11.1651C53.976 11.4025 54.996 11.0733 55.2642 11.4675C55.1236 12.2692 55.0424 12.9082 54.9033 13.4285C54.863 13.6777 54.5847 14.7183 54.5166 14.9645C54.4653 15.1844 54.0332 16.3496 54.0933 16.5811C54.1703 16.7863 54.6026 16.9584 54.9133 16.9489C55.6197 16.9246 55.8657 15.3879 56.0129 14.9247C56.084 14.6506 56.3359 13.5932 56.393 13.3176C56.4699 12.9879 56.7327 11.4248 57.0207 11.2298C57.2947 11.0334 58.4262 11.2508 58.8812 11.0734C59.1897 10.951 59.3992 10.5648 59.3552 10.1801C59.2847 9.51106 57.5759 9.96493 57.2754 9.60957ZM65.4075 13.0826C65.3216 12.1586 65.9918 10.4694 64.856 10.5612C64.2024 10.6192 64.1403 11.6121 64.029 12.4028C63.8833 13.387 63.6548 14.2217 63.4549 15.1861C63.2653 16.053 63.0031 16.9404 64.0275 16.8369C64.4107 16.8068 64.9975 15.6438 65.2781 15.251C65.769 14.5987 65.6701 14.6024 66.4628 13.7566C66.7823 13.396 67.1163 12.8962 67.5538 12.8859C67.5715 13.5212 67.4609 13.9038 67.3071 14.5633C67.138 15.2353 66.9908 15.9659 66.9608 16.6526C67.2284 17.1874 68.1986 17.0642 68.4294 16.6098C68.5011 16.4625 68.4806 16.1225 68.5069 15.8719C68.6277 14.8569 69.1426 13.3063 69.16 12.3368C69.1651 11.8868 68.9964 11.3483 68.8396 11.2332C68.3346 10.8142 67.7521 11.133 67.3623 11.3595C66.8509 11.6718 66.4142 12.0763 66.0596 12.5036C65.8816 12.7242 65.683 12.8723 65.4075 13.0826ZM71.6834 15.6427C72.0293 15.5664 72.6177 15.4593 73.0625 15.3794C73.722 15.2657 74.0627 15.1044 74.7127 14.9475C75.1018 14.8617 75.4161 14.4161 75.4277 14.0373C75.4541 13.7866 75.3177 13.2092 75.2378 13.0319C74.7869 11.5627 73.6876 11.0389 72.2734 11.3689C71.6989 11.4775 71.0152 11.9546 70.6152 12.546C70.1053 13.1118 69.8599 13.9729 69.9986 15.1981C70.2546 16.3793 70.5741 16.8212 71.6536 17.3992C72.3242 17.8497 73.7077 17.8121 74.472 17.3716C74.7291 17.2016 74.8441 16.7773 74.5715 16.4248C74.076 16.049 73.6072 16.7599 72.6948 16.4669C72.0953 16.2772 71.7465 16.1138 71.6834 15.6427ZM71.96 13.0112C72.9118 12.3933 73.7413 12.5368 73.9921 13.633C73.8976 13.8624 73.469 14.0566 73.1414 14.0926C72.6439 14.1388 71.7653 14.328 71.519 14.2599C71.434 13.9976 71.5672 13.2655 71.96 13.0112ZM77.9244 16.2986C78.2703 16.2224 78.8587 16.1153 79.3035 16.0353C79.963 15.9216 80.3037 15.7604 80.9537 15.6035C81.3428 15.5177 81.6571 15.0721 81.6687 14.6932C81.6951 14.4426 81.5587 13.8652 81.4788 13.6878C81.0279 12.2187 79.9286 11.6949 78.5144 12.0249C77.9399 12.1334 77.2563 12.6106 76.8562 13.202C76.3463 13.7678 76.101 14.6289 76.2397 15.8541C76.4956 17.0353 76.8151 17.4771 77.8946 18.0551C78.5652 18.5057 79.9487 18.4681 80.713 18.0276C80.9701 17.8575 81.0851 17.4332 80.8125 17.0808C80.317 16.7049 79.8482 17.4158 78.9358 17.1229C78.3363 16.9332 77.9875 16.7698 77.9244 16.2986ZM78.201 13.6671C79.1528 13.0492 79.9823 13.1927 80.2331 14.2889C80.1386 14.5183 79.71 14.7126 79.3824 14.7485C78.8849 14.7948 78.0063 14.984 77.7601 14.9159C77.675 14.6535 77.8083 13.9215 78.201 13.6671ZM86.1203 20.1866C86.7601 20.3946 87.1806 20.1432 87.3256 19.5672C87.5929 18.4973 87.6579 16.9416 87.8475 15.5397C88.0239 14.5306 88.2766 13.3325 88.4728 12.2691C88.6412 11.4704 89.1085 9.97101 88.4101 9.78499C88.1946 9.69196 87.7264 9.72721 87.6099 9.89796C87.215 10.5744 87.3275 12.5852 86.6959 12.9692C85.8048 12.8756 85.0134 12.905 84.2638 13.2063C83.5852 13.501 83.0856 13.9693 82.6995 14.5622C82.3837 15.0217 82.1457 15.8132 82.2645 16.5577C82.3863 17.2744 83.0525 18.0342 83.63 18.4327C84.2617 18.851 85.004 18.8868 85.7523 19.1344C85.9025 19.4458 85.8162 19.9998 86.1203 20.1866ZM86.2897 16.1643C86.2025 16.5915 86.1228 17.4841 85.9514 17.7758C85.2809 17.8601 84.3128 17.2938 83.9646 16.7223C83.3899 15.761 84.2156 14.4682 85.2562 14.479C85.9025 14.4907 86.2542 14.3587 86.4353 14.6452C86.502 14.9478 86.3783 15.7231 86.2897 16.1643ZM20.2851 19.644C19.8322 19.6668 19.5934 19.7965 19.2329 20.012C18.6599 20.3741 18.5742 20.52 18.2012 20.9875C17.4935 21.8282 17.172 23.4132 17.8032 24.5072C18.163 24.9673 18.9238 25.4978 19.6265 25.642C20.4656 25.8287 21.131 25.6594 21.6966 25.3669C22.6858 24.7952 23.439 23.7904 23.4014 22.6743C23.533 20.8863 22.342 19.4942 20.2851 19.644ZM18.9732 23.1521C18.9262 22.2603 19.7306 21.0357 20.4971 20.9754C21.4907 20.8969 22.2164 22.0289 21.8428 23.1722C21.6517 23.7855 20.9974 24.2517 20.5526 24.3316C19.6088 24.4717 19.0129 23.846 18.9732 23.1521ZM25.9949 23.0173C25.909 22.0933 26.5793 20.4041 25.4435 20.4959C24.7898 20.5539 24.7277 21.5468 24.6164 22.3375C24.4708 23.3217 24.2423 24.1564 24.0424 25.1207C23.8527 25.9877 23.5905 26.8751 24.6149 26.7716C24.9982 26.7415 25.585 25.5785 25.8656 25.1857C26.3564 24.5334 26.2575 24.5371 27.0503 23.6913C27.3697 23.3307 27.7038 22.8309 28.1412 22.8206C28.1589 23.4559 28.0483 23.8385 27.8946 24.498C27.7254 25.17 27.5782 25.9006 27.5483 26.5872C27.8158 27.1221 28.786 26.9989 29.0168 26.5445C29.0886 26.3972 29.068 26.0572 29.0943 25.8066C29.2151 24.7916 29.73 23.241 29.7474 22.2715C29.7525 21.8215 29.5839 21.283 29.427 21.1679C28.9221 20.7489 28.3396 21.0677 27.9497 21.2942C27.4383 21.6065 27.0016 22.011 26.647 22.4383C26.469 22.6589 26.2704 22.807 25.9949 23.0173ZM32.2708 25.5774C32.6167 25.5011 33.2051 25.394 33.6499 25.3141C34.3094 25.2004 34.6501 25.0391 35.3001 24.8822C35.6892 24.7964 36.0035 24.3508 36.0152 23.9719C36.0415 23.7213 35.9051 23.1439 35.8252 22.9666C35.3743 21.4974 34.275 20.9736 32.8608 21.3036C32.2863 21.4121 31.6027 21.8893 31.2027 22.4807C30.6927 23.0465 30.4474 23.9076 30.5861 25.1328C30.842 26.314 31.1616 26.7559 32.2411 27.3339C32.9116 27.7844 34.2951 27.7468 35.0594 27.3063C35.3166 27.1363 35.4315 26.712 35.1589 26.3595C34.6635 25.9837 34.1946 26.6946 33.2822 26.4016C32.6828 26.2119 32.3339 26.0485 32.2708 25.5774ZM32.5474 22.9458C33.4992 22.328 34.3288 22.4714 34.5795 23.5677C34.4851 23.797 34.0564 23.9913 33.7288 24.0273C33.2313 24.0735 32.3527 24.2627 32.1065 24.1946C32.0214 23.9323 32.1547 23.2002 32.5474 22.9458ZM44.445 22.3381C44.3913 21.3753 44.6815 21.0257 44.8565 20.298C45.033 19.8238 45.1546 19.4706 44.454 19.4392C43.3482 19.3793 43.363 20.3099 43.1529 21.1043C43.0635 21.4187 42.9061 22.2468 42.6518 22.389C42.413 22.5187 41.4537 22.4038 41.154 22.4427C40.8638 22.5248 40.5979 22.7784 40.5283 23.0386C40.4338 23.268 40.4859 23.7098 40.7622 23.8937C41.1455 24.1311 42.1655 23.8019 42.4337 24.1961C42.2932 24.9978 42.2119 25.6368 42.0728 26.1571C42.0325 26.4063 41.7542 27.4469 41.6861 27.6931C41.6349 27.913 41.2027 29.0782 41.2628 29.3097C41.3398 29.5149 41.7722 29.687 42.0829 29.6774C42.7893 29.6532 43.0353 28.1164 43.1825 27.6533C43.2535 27.3792 43.5054 26.3218 43.5625 26.0462C43.6394 25.7165 43.9023 24.1534 44.1902 23.9584C44.4642 23.762 45.5957 23.9794 46.0508 23.802C46.3592 23.6796 46.5688 23.2934 46.5247 22.9087C46.4543 22.2396 44.7455 22.6935 44.445 22.3381ZM48.0954 24.1999C48.6062 24.2958 49.2568 23.7308 50.3186 23.6734C50.6345 23.7489 51.0318 24.5226 50.6339 24.9594C50.3819 25.2145 49.1933 25.0051 48.4891 25.1422C48.0861 25.2266 47.568 25.4677 47.3526 25.6422C47.0141 25.9163 46.6009 26.3656 46.6765 27.1196C46.6846 27.4442 46.9323 27.7659 47.1595 28.015C47.7034 28.7338 48.3036 29.0503 49.0914 29.4568C49.3178 29.5792 49.8784 29.7366 50.1195 29.7197C50.4581 29.7131 50.8728 29.2499 50.9995 28.9817C51.3013 28.2532 51.521 27.5021 51.7591 26.7106C51.9451 26.0123 52.2593 25.0317 52.1998 24.1245C52.1645 23.3888 51.7613 22.6707 51.2791 22.4371C50.4225 22.1499 49.7095 22.3706 48.7855 22.724C48.3194 22.8721 47.7626 23.081 47.7736 23.6453C47.7891 23.9003 47.8411 24.0747 48.0954 24.1999ZM49.4067 26.3226C49.6727 26.3365 50.2091 26.3225 50.374 26.4947C50.3228 26.982 50.1786 27.9522 49.7353 28.0183C49.0772 27.8505 48.0776 27.4499 48.1486 26.6409C48.3867 26.3843 48.8747 26.2949 49.4067 26.3226ZM55.0059 23.5608C54.9707 23.0925 55.0476 22.7628 55.1435 22.252C55.2673 21.7441 55.5192 20.9541 55.3543 20.5145C55.1483 19.9298 54.3232 20.012 54.0426 20.4048C53.7964 20.8716 53.6698 21.9422 53.557 22.4794C53.2861 23.7179 52.9448 25.0897 52.6937 26.5414C52.5817 27.2053 52.3056 28.0913 52.3108 28.7113C52.3124 29.2323 52.4583 29.8529 53.1193 29.9928C53.5451 30.0939 54.7197 29.7668 55.0714 29.6349C55.6854 29.4179 56.2372 29.1239 56.8021 28.7047C57.5377 28.1345 58.3723 27.2931 58.4446 26.2027C58.5089 25.0551 57.5862 24.3247 56.6167 24.0398C56.07 23.8838 55.3468 23.9344 55.0059 23.5608ZM54.067 26.8687C54.168 26.1755 54.3489 25.3921 54.7182 25.0931C55.6811 25.0394 56.9548 25.5112 56.9285 26.2967C56.9022 26.8148 56.1834 27.3587 55.7973 27.6841C55.3928 28.0498 54.1794 28.612 53.7617 28.5681L54.067 26.8687ZM64.6647 27.0817C64.5789 26.1576 65.2491 24.4684 64.1133 24.5602C63.4596 24.6182 63.3975 25.6112 63.2862 26.4019C63.1406 27.386 62.9121 28.2207 62.7122 29.1851C62.5225 30.052 62.2603 30.9395 63.2847 30.836C63.668 30.8059 64.2548 29.6429 64.5354 29.25C65.0262 28.5978 64.9273 28.6014 65.7201 27.7557C66.0395 27.3951 66.3736 26.8953 66.8111 26.8849C66.8287 27.5203 66.7181 27.9028 66.5644 28.5624C66.3952 29.2344 66.248 29.965 66.2181 30.6516C66.4856 31.1865 67.4558 31.0632 67.6866 30.6089C67.7584 30.4616 67.7378 30.1216 67.7642 29.8709C67.8849 28.856 68.3998 27.3053 68.4173 26.3358C68.4223 25.8859 68.2537 25.3473 68.0968 25.2323C67.5919 24.8132 67.0094 25.1321 66.6196 25.3586C66.1081 25.6708 65.6714 26.0754 65.3168 26.5027C65.1388 26.7233 64.9402 26.8713 64.6647 27.0817ZM71.872 25.066C71.4192 25.0888 71.1803 25.2185 70.8198 25.434C70.2468 25.7961 70.1611 25.942 69.7882 26.4095C69.0804 27.2502 68.759 28.8352 69.3901 29.9292C69.75 30.3893 70.5107 30.9198 71.2135 31.064C72.0525 31.2508 72.7179 31.0814 73.2836 30.7889C74.2727 30.2172 75.0259 29.2124 74.9884 28.0963C75.12 26.3083 73.929 24.9162 71.872 25.066ZM70.5602 28.5741C70.5131 27.6823 71.3175 26.4577 72.084 26.3975C73.0777 26.3189 73.8033 27.4509 73.4298 28.5942C73.2386 29.2075 72.5843 29.6737 72.1395 29.7536C71.1957 29.8938 70.5998 29.268 70.5602 28.5741ZM77.3866 30.6993C77.1821 30.3681 77.2237 29.3026 77.2426 28.5867C77.2674 28.0825 77.5852 26.666 77.435 26.3545C77.2612 25.9984 76.5292 25.8652 76.2141 26.184C75.7899 26.604 75.791 28.8705 75.8079 29.379C75.8542 30.1441 75.8661 31.1026 76.1351 31.6235C76.4935 32.3651 77.5385 32.3341 78.1379 31.9889C78.4537 31.7968 79.1592 30.8434 79.2384 30.8939C79.3454 30.9474 79.6753 32.0942 79.8915 32.314C80.3474 32.7983 81.1146 32.5974 81.7249 32.2814C83.1135 31.5264 84.4908 29.1373 84.6252 26.7865C84.3591 26.2377 83.5758 26.3243 83.3025 26.6475C83.0454 27.085 82.844 28.3308 82.5488 29.1303C82.2324 29.998 81.2316 31.216 80.9158 31.1406C80.5596 31.0469 80.5168 29.0434 80.1547 28.4704C79.9363 28.1378 79.564 28.1972 79.2709 28.3072C78.7903 28.5945 78.1743 30.5709 77.3866 30.6993Z" fill="black"/>
<defs>
<clipPath id="clip0_2_220">
<rect width="28.3944" height="34.4457" fill="white" transform="translate(41.518 42.6121) rotate(107.943)"/>
</clipPath>
</defs>
</svg>
