<svg width="95" height="65" viewBox="0 0 95 65" fill="none" xmlns="http://www.w3.org/2000/svg">
<g clip-path="url(#clip0_2_412)">
<path d="M48.7745 36.0242C47.5065 34.8763 47.4309 33.4168 47.5357 32.0631C47.7066 30.1822 48.0807 28.2991 48.6353 26.5219C51.4049 18.4019 56.8535 12.5404 64.4647 8.71524C66.4033 7.74961 68.5121 7.04555 70.7743 6.1484C69.1783 4.52507 66.77 4.08315 65.0309 2.49721C65.9224 2.00921 66.6672 2.3247 67.2916 2.56961C69.8496 3.58452 72.4201 4.64716 74.9553 5.77003C76.169 6.32005 76.4266 6.91587 75.7927 7.99968C74.5021 10.2753 72.6428 11.9343 70.25 12.9166C70.1546 12.9415 69.9741 12.8357 69.6857 12.707C69.6739 10.5167 72.4218 10.3087 72.9141 8.29277C69.4235 8.38869 66.4254 9.7842 63.5976 11.4413C60.6391 13.1835 57.8986 15.1748 55.6791 17.7951C53.4948 20.3552 51.9599 23.2558 50.6305 26.3576C49.2409 29.4242 48.7017 32.6256 48.7745 36.0242Z" fill="black"/>
</g>
<path d="M22.6332 42.5381C21.9839 42.5973 21.38 42.7894 20.9376 43.3088C20.7654 43.5214 20.695 44.0481 20.7129 44.3606C20.7389 44.8652 21.235 45.271 21.637 45.579C21.9682 45.8256 22.7758 46.2616 22.6936 46.7761C21.9543 47.7457 21.5049 46.8006 20.8516 47.0638C20.7306 47.1094 20.5841 47.2386 20.5579 47.3461C20.4379 47.9558 20.6028 48.1151 21.6181 48.3632C22.0481 48.4677 22.7099 48.3847 23.0503 48.1634C23.5244 47.8607 23.9182 47.3644 23.9553 46.705C23.9968 45.8176 23.2509 45.2988 22.7665 44.9052C22.6602 44.819 22.0425 44.4948 22.0731 44.1593C22.1047 43.7759 22.4907 43.6755 23.147 43.8685C23.3849 43.9812 23.9285 44.412 24.1722 44.2248C24.2936 44.1551 24.5623 43.9204 24.5325 43.6077C24.4927 43.1869 24.0308 42.8777 23.5546 42.6763C23.3166 42.5756 22.6934 42.5273 22.6332 42.5381ZM27.2592 42.6293C26.8741 42.6817 26.6795 42.8099 26.3873 43.0202C25.9243 43.3711 25.8617 43.5019 25.5773 43.9284C25.034 44.6978 24.8748 46.075 25.4934 46.9633C25.8342 47.3301 26.5225 47.7278 27.1332 47.7998C27.8634 47.8983 28.4193 47.7052 28.8812 47.4142C29.6844 46.854 30.2545 45.941 30.1412 44.9906C30.1235 43.454 29.005 42.3517 27.2592 42.6293ZM26.3941 45.7209C26.289 44.9626 26.8869 43.8582 27.5371 43.751C28.3801 43.6116 29.0822 44.5257 28.8463 45.5292C28.7277 46.067 28.2028 46.5127 27.8288 46.6133C27.0329 46.8017 26.4785 46.3106 26.3941 45.7209ZM32.2571 39.8234C31.4363 40.0592 31.494 41.3926 31.3904 42.3868C31.242 43.8241 31.077 44.8891 30.8799 46.3615C30.8085 46.9362 30.4058 48.4885 30.8093 48.7245C31.1529 48.9474 31.6757 48.6096 31.8272 48.2285C31.9282 47.9785 32.0669 47.033 32.1097 46.6858C32.3005 44.9252 32.523 43.3813 32.6912 41.5482C32.7651 40.8416 33.1019 39.588 32.2571 39.8234ZM34.5636 43.3735C33.5208 43.305 33.4073 44.1909 33.3411 45.1138C33.322 45.4735 33.2936 46.3011 33.3336 46.7099C33.424 47.5999 34.0034 48.0434 34.6482 48.2121C36.4062 48.5349 37.1069 47.6965 37.5175 46.3484C37.6712 45.8593 37.7538 45.3208 37.7753 44.8412C37.7987 44.2655 37.7945 43.2572 37.4506 43.0464C37.2373 42.9102 36.647 43.0186 36.5439 43.3766C36.4402 43.7706 36.505 44.7441 36.4466 45.271C36.3736 45.9297 36.0278 47.0271 35.5465 47.0896C34.1486 47.3741 34.6083 45.3668 34.723 44.4209C34.7783 44.0499 34.8835 43.5839 34.5636 43.3735ZM41.5043 43.0424C41.3884 42.2239 41.6108 41.9042 41.7073 41.27C41.8236 40.8522 41.9017 40.5417 41.3011 40.5659C40.3524 40.5952 40.4327 41.3889 40.311 42.0826C40.2576 42.3576 40.1834 43.0763 39.9766 43.2163C39.782 43.3445 38.9544 43.3161 38.7013 43.3711C38.4594 43.4624 38.2507 43.6983 38.2103 43.9256C38.1462 44.1283 38.2229 44.5019 38.4722 44.6389C38.8169 44.8137 39.664 44.4583 39.9218 44.7755C39.8601 45.4704 39.8372 46.0221 39.7562 46.4766C39.74 46.6923 39.578 47.6013 39.5378 47.8165C39.51 48.008 39.2257 49.0346 39.2939 49.228C39.3746 49.3976 39.7563 49.5131 40.021 49.4824C40.6225 49.4102 40.7208 48.0799 40.8128 47.6736C40.8536 47.4344 40.9918 46.5129 41.0205 46.2734C41.0622 45.9862 41.1729 44.6321 41.4046 44.4447C41.6244 44.257 42.6065 44.3604 42.9822 44.1757C43.2368 44.0487 43.3876 43.7036 43.322 43.3783C43.2132 42.812 41.7868 43.324 41.5043 43.0424ZM45.0528 41.5641C44.7274 41.6297 44.4326 41.9719 44.4615 42.3325C44.5193 43.0538 45.8071 42.8752 45.8095 42.1431C45.806 41.7109 45.4744 41.4884 45.0528 41.5641ZM44.9046 43.6015C44.3277 43.6382 44.1348 44.2945 44.0387 44.9047C43.9271 45.6947 43.8021 46.5564 43.6898 47.3823C43.6205 47.849 43.5031 48.3268 43.703 48.5348C43.9851 48.8404 44.7337 48.6151 44.9082 48.2825C45.0332 48.0329 45.0105 47.3604 45.043 46.9289C45.0941 46.1618 45.2276 45.4803 45.373 44.799C45.4512 44.4885 45.5651 44.1907 45.5322 44.034C45.4783 43.7209 45.073 43.5809 44.9046 43.6015ZM48.2668 43.0437C47.8817 43.0962 47.6872 43.2243 47.395 43.4346C46.932 43.7856 46.8694 43.9163 46.5849 44.3428C46.0416 45.1123 45.8824 46.4894 46.501 47.3778C46.8419 47.7445 47.5302 48.1422 48.1408 48.2143C48.871 48.3127 49.427 48.1196 49.8888 47.8287C50.692 47.2684 51.2621 46.3555 51.1488 45.405C51.1311 43.8684 50.0127 42.7661 48.2668 43.0437ZM47.4017 46.1353C47.2966 45.3771 47.8945 44.2726 48.5448 44.1654C49.3877 44.026 50.0898 44.9401 49.854 45.9436C49.7353 46.4814 49.2104 46.9271 48.8364 47.0277C48.0405 47.2161 47.4861 46.7251 47.4017 46.1353ZM53.3888 45.5092C53.2482 44.7263 53.6977 43.2349 52.7343 43.3959C52.1803 43.493 52.1995 44.3456 52.162 45.0289C52.1092 45.8801 51.9748 46.6096 51.8743 47.4477C51.7754 48.2019 51.616 48.9789 52.4834 48.816C52.8085 48.7624 53.225 47.7264 53.4361 47.3705C53.8078 46.7777 53.7236 46.7881 54.3391 46.0081C54.5857 45.6769 54.8347 45.2257 55.2075 45.185C55.2689 45.7264 55.2023 46.0611 55.1189 46.6356C55.0233 47.2218 54.9508 47.8565 54.9752 48.4451C55.2426 48.8825 56.0622 48.7066 56.2263 48.3017C56.2769 48.1707 56.2345 47.8818 56.2388 47.6659C56.2681 46.7903 56.595 45.4285 56.5393 44.5992C56.5109 44.2146 56.3277 43.7669 56.1854 43.68C55.7236 43.3589 55.2493 43.6736 54.9329 43.8954C54.5188 44.1993 54.1753 44.5766 53.9036 44.9673C53.7676 45.1686 53.6088 45.3095 53.3888 45.5092ZM62.8673 46.4884C63.231 46.3035 63.6848 46.4205 64.1423 46.3455C64.5759 46.27 64.6764 45.4318 64.1401 45.2412C63.5438 45.0494 63.3358 45.2494 62.9549 45.0858C62.7691 44.7701 62.942 43.3092 63.0211 42.9507C63.1526 42.3652 63.3546 41.253 63.9185 41.2641C64.2544 41.2707 64.3297 41.7163 64.4329 41.9584C64.5361 42.2004 64.637 42.5625 64.8647 42.579C65.139 42.6684 65.5488 42.5805 65.6517 42.2345C65.7522 42.0084 65.7146 41.4796 65.4839 41.0069C65.1725 40.3646 64.6413 39.9101 63.81 40.0737C62.9546 40.2369 62.4983 40.852 62.1216 41.6967C61.7828 42.4462 61.674 43.0922 61.5598 44.0141C61.5188 44.2653 61.5806 44.7827 61.4698 44.9245C61.3343 45.1019 61.4677 45.0325 61.1315 45.0379C60.8193 45.0437 60.4679 45.2168 60.4142 45.5038C60.3756 45.6351 60.3243 45.8021 60.4887 45.9854C60.9003 46.4136 60.8691 46.1729 61.4541 46.3285C61.6084 47.0276 61.3685 48.2351 61.5237 48.8863C61.6239 49.2844 62.499 49.3377 62.6764 48.8611C62.8802 48.265 62.7049 46.8092 62.8673 46.4884ZM67.517 43.4235C67.1319 43.4759 66.9373 43.6041 66.6451 43.8144C66.1821 44.1653 66.1195 44.2961 65.8351 44.7226C65.2918 45.492 65.1326 46.8691 65.7512 47.7575C66.092 48.1243 66.7803 48.5219 67.391 48.594C68.1212 48.6924 68.6771 48.4993 69.139 48.2084C69.9422 47.6481 70.5123 46.7352 70.399 45.7848C70.3813 44.2481 69.2628 43.1459 67.517 43.4235ZM66.6519 46.515C66.5468 45.7568 67.1447 44.6524 67.7949 44.5452C68.6379 44.4058 69.34 45.3198 69.1041 46.3233C68.9855 46.8611 68.4606 47.3068 68.0865 47.4075C67.2907 47.5958 66.7363 47.1048 66.6519 46.515ZM72.6373 43.5365C72.5317 43.4144 72.3412 43.3386 72.161 43.3471C71.5126 43.3583 71.5281 43.7907 71.4026 44.6764C71.2755 45.646 71.2075 47.265 71.1041 48.2472C71.0632 48.4984 71.0097 48.7734 71.0549 48.9183C71.112 49.0635 71.3611 49.2124 71.5409 49.228C71.9963 49.261 72.2247 49.2415 72.3528 48.8359C72.5067 48.3348 72.5214 46.9789 72.5685 46.4157C72.5726 46.2117 73.3993 45.6759 73.894 45.5417C74.0994 45.4737 74.6179 45.3519 74.8711 45.2969C75.1122 45.2416 75.5615 44.9744 75.499 44.4931C75.4555 44.2642 75.1707 44.1026 74.9192 44.0736C74.4885 44.0051 73.9928 44.1873 73.6665 44.3009C73.3642 44.415 72.9487 44.7909 72.6506 44.689C72.6824 44.2935 72.7613 43.947 72.6373 43.5365ZM12.8233 60.9122C13.3848 61.0433 13.7257 60.7979 13.8076 60.2955C13.9581 59.3622 13.9004 58.0288 13.9603 56.8178C14.0375 55.9431 14.1661 54.9015 14.2563 53.9791C14.342 53.2846 14.632 51.9701 14.022 51.862C13.8312 51.7983 13.4339 51.8624 13.3468 52.0168C13.0588 52.6232 13.3012 54.3323 12.7897 54.7063C12.0218 54.6912 11.3481 54.7739 10.7298 55.0857C10.1717 55.3868 9.77907 55.8231 9.49247 56.3576C9.25623 56.773 9.11053 57.4663 9.26619 58.0935C9.42232 58.6967 10.0466 59.2971 10.5688 59.5954C11.1388 59.9067 11.7754 59.8833 12.4324 60.0403C12.5834 60.2953 12.5499 60.7747 12.8233 60.9122ZM12.6753 57.4646C12.6319 57.8358 12.6288 58.6039 12.5036 58.8655C11.9371 58.9863 11.0691 58.5731 10.7301 58.1103C10.1694 57.3311 10.7805 56.167 11.67 56.1005C12.2228 56.0634 12.5136 55.9251 12.6891 56.1566C12.7681 56.4102 12.7188 57.0814 12.6753 57.4646ZM16.2396 52.998C15.9143 53.0636 15.6195 53.4059 15.6484 53.7665C15.7062 54.4878 16.9939 54.3091 16.9964 53.577C16.9929 53.1449 16.6612 52.9223 16.2396 52.998ZM16.0914 55.0355C15.5146 55.0721 15.3216 55.7284 15.2256 56.3387C15.114 57.1286 14.9889 57.9903 14.8766 58.8163C14.8074 59.283 14.69 59.7608 14.8899 59.9687C15.1719 60.2744 15.9205 60.0491 16.0951 59.7165C16.22 59.4669 16.1973 58.7943 16.2298 58.3629C16.281 57.5957 16.4144 56.9142 16.5599 56.233C16.638 55.9224 16.7519 55.6246 16.719 55.4679C16.6652 55.1548 16.2599 55.0148 16.0914 55.0355ZM19.5377 54.4793C18.8884 54.5385 18.2845 54.7307 17.8422 55.2501C17.6699 55.4627 17.5995 55.9894 17.6174 56.3018C17.6434 56.8064 18.1395 57.2123 18.5415 57.5203C18.8727 57.7669 19.6803 58.2029 19.5981 58.7174C18.8588 59.687 18.4094 58.7419 17.7561 59.0051C17.6352 59.0507 17.4886 59.1798 17.4625 59.2873C17.3424 59.8971 17.5073 60.0564 18.5226 60.3045C18.9526 60.409 19.6144 60.326 19.9548 60.1047C20.4289 59.802 20.8227 59.3056 20.8598 58.6462C20.9013 57.7589 20.1554 57.2401 19.671 56.8464C19.5647 56.7603 18.947 56.4361 18.9776 56.1006C19.0092 55.7172 19.3952 55.6168 20.0515 55.8097C20.2894 55.9224 20.833 56.3533 21.0767 56.166C21.1981 56.0964 21.4668 55.8617 21.437 55.549C21.3973 55.1281 20.9353 54.819 20.4591 54.6175C20.2211 54.5168 19.5979 54.4685 19.5377 54.4793ZM26.4856 59.1653C26.2231 58.476 25.6874 58.8615 25.0016 58.944C24.0752 59.0577 23.5093 58.5425 23.3063 57.8783C23.1151 57.2264 23.8758 56.3893 24.7418 56.2983C25.0664 56.2687 25.388 56.3951 25.7973 56.3312C26.1222 56.2896 26.43 55.8996 26.3312 55.4295C26.2315 55.0075 25.0082 54.9593 24.6234 54.9997C23.5894 55.0874 22.738 55.6587 22.2759 56.5738C22.0619 57.0736 21.9151 57.8269 22.0721 58.3821C22.4703 59.4942 23.3098 60.1348 24.5451 60.1832C25.6604 60.2292 26.7139 59.7579 26.4856 59.1653ZM29.3776 54.6735C28.9924 54.7259 28.7979 54.8541 28.5057 55.0643C28.0427 55.4153 27.9801 55.5461 27.6956 55.9725C27.1523 56.742 26.9931 58.1191 27.6117 59.0075C27.9526 59.3743 28.6409 59.7719 29.2516 59.844C29.9818 59.9424 30.5377 59.7493 30.9995 59.4584C31.8027 58.8981 32.3728 57.9852 32.2595 57.0348C32.2418 55.4981 31.1234 54.3958 29.3776 54.6735ZM28.5124 57.765C28.4073 57.0068 29.0052 55.9023 29.6555 55.7951C30.4984 55.6557 31.2005 56.5698 30.9647 57.5733C30.846 58.1111 30.3211 58.5568 29.9471 58.6575C29.1512 58.8458 28.5968 58.3548 28.5124 57.765ZM34.7581 58.6323C34.6859 58.0308 34.5007 57.079 34.3683 56.4882C34.3022 56.1869 34.195 55.5366 34.0426 55.3536C33.7728 55.0362 33.1694 55.2043 32.9722 55.4645C32.9228 55.5355 32.7976 55.7971 32.9107 56.1474C32.9704 56.7727 33.5866 58.3932 33.8412 59.4784C33.9508 60.0087 34.014 60.454 34.3843 60.5453C34.9926 60.7374 35.4531 59.9063 35.7136 59.4793C36.57 58.044 36.9072 57.3785 37.3416 56.6549C37.5776 56.2515 37.9314 55.9584 37.7621 55.415C37.6391 54.9564 37.1494 54.8388 36.7965 55.0839C36.3829 55.3637 36.2393 55.949 35.9529 56.4715C35.5449 57.0756 35.1793 57.9685 34.7581 58.6323ZM39.5419 58.8587C39.8317 58.7684 40.3265 58.6342 40.7005 58.5335C41.2555 58.3884 41.5348 58.2259 42.0784 58.0446C42.4045 57.943 42.6405 57.5396 42.6229 57.2152C42.6272 56.9992 42.4687 56.516 42.3875 56.3704C41.8955 55.1484 40.9186 54.7811 39.7348 55.1658C39.252 55.3003 38.7029 55.7576 38.4043 56.2918C38.01 56.8121 37.8631 57.5654 38.0707 58.6017C38.3752 59.5919 38.6803 59.946 39.6443 60.361C40.2498 60.6971 41.4286 60.5643 42.0493 60.1324C42.2565 59.9685 42.3239 59.5977 42.0654 59.3166C41.6149 59.0317 41.2662 59.6729 40.4656 59.4891C39.9399 59.3707 39.6301 59.2566 39.5419 58.8587ZM39.5866 56.5912C40.3545 55.9942 41.0735 56.0564 41.3674 56.9744C41.3034 57.1771 40.9514 57.3742 40.6743 57.4288C40.2527 57.5045 39.5161 57.73 39.3009 57.6898C39.2092 57.4719 39.2697 56.837 39.5866 56.5912ZM44.9021 54.9917C44.7965 54.8696 44.606 54.7938 44.4258 54.8023C43.7774 54.8135 43.7929 55.2459 43.6674 56.1316C43.5402 57.1013 43.4723 58.7202 43.3689 59.7024C43.3279 59.9536 43.2745 60.2286 43.3197 60.3735C43.3768 60.5187 43.6259 60.6676 43.8056 60.6832C44.2611 60.7162 44.4895 60.6967 44.6175 60.2911C44.7714 59.7901 44.7862 58.4341 44.8333 57.8709C44.8373 57.6669 45.6641 57.1311 46.1588 56.9969C46.3642 56.9289 46.8827 56.8071 47.1358 56.7521C47.377 56.6968 47.8263 56.4297 47.7638 55.9483C47.7203 55.7194 47.4354 55.5578 47.184 55.5288C46.7532 55.4603 46.2575 55.6426 45.9312 55.7561C45.6289 55.8702 45.2134 56.2461 44.9154 56.1442C44.9472 55.7487 45.026 55.4022 44.9021 54.9917ZM52.4997 56.5218C52.9429 56.5666 53.4574 56.0366 54.3601 55.9104C54.6353 55.9519 55.031 56.5838 54.723 56.9858C54.5263 57.2219 53.4959 57.1296 52.9045 57.298C52.5664 57.3993 52.1415 57.643 51.9702 57.8077C51.7011 58.0664 51.3808 58.4802 51.5003 59.1186C51.5308 59.3953 51.7658 59.652 51.978 59.8482C52.4948 60.4225 53.0304 60.6491 53.7328 60.939C53.9351 61.027 54.4254 61.1207 54.63 61.0887C54.9187 61.0584 55.2391 60.6327 55.3279 60.3944C55.5326 59.7503 55.6656 59.0928 55.8113 58.3995C55.9194 57.7895 56.1164 56.9293 55.9995 56.1588C55.9159 55.533 55.5193 54.9491 55.0905 54.7846C54.3379 54.6017 53.7451 54.8421 52.9816 55.2111C52.5944 55.3715 52.134 55.5904 52.1845 56.0715C52.2162 56.2882 52.2734 56.4334 52.4997 56.5218ZM53.7741 58.2393C54.0023 58.2318 54.4594 58.1808 54.6127 58.3159C54.6044 58.7358 54.5519 59.5749 54.1781 59.6636C53.6038 59.5682 52.721 59.2987 52.7227 58.6026C52.9074 58.3662 53.3177 58.2543 53.7741 58.2393ZM63.1657 55.472C63.0498 54.6536 63.2722 54.3339 63.3687 53.6997C63.485 53.2819 63.5631 52.9714 62.9625 52.9955C62.0138 53.0248 62.0941 53.8185 61.9724 54.5123C61.919 54.7873 61.8448 55.506 61.638 55.6459C61.4434 55.7741 60.6158 55.7458 60.3627 55.8008C60.1208 55.892 59.9122 56.128 59.8717 56.3552C59.8076 56.558 59.8843 56.9316 60.1336 57.0685C60.4783 57.2433 61.3254 56.888 61.5832 57.2051C61.5215 57.9 61.4986 58.4517 61.4176 58.9062C61.4014 59.1219 61.2394 60.0309 61.1992 60.2461C61.1714 60.4376 60.8871 61.4642 60.9553 61.6576C61.036 61.8272 61.4178 61.9428 61.6824 61.912C62.284 61.8399 62.3822 60.5095 62.4742 60.1033C62.515 59.864 62.6532 58.9426 62.6819 58.7031C62.7236 58.4159 62.8343 57.0618 63.066 56.8743C63.2858 56.6866 64.2679 56.79 64.6437 56.6054C64.8982 56.4784 65.049 56.1333 64.9835 55.8079C64.8746 55.2417 63.4482 55.7536 63.1657 55.472ZM67.058 55.4288C66.9523 55.3067 66.7618 55.2309 66.5816 55.2393C65.9333 55.2505 65.9487 55.6829 65.8232 56.5686C65.6961 57.5383 65.6281 59.1573 65.5248 60.1394C65.4838 60.3907 65.4304 60.6657 65.4755 60.8106C65.5327 60.9558 65.7818 61.1047 65.9615 61.1202C66.4169 61.1532 66.6454 61.1337 66.7734 60.7282C66.9273 60.2271 66.942 58.8711 66.9892 58.308C66.9932 58.104 67.8199 57.5682 68.3147 57.4339C68.52 57.366 69.0385 57.2442 69.2917 57.1892C69.5328 57.1339 69.9822 56.8667 69.9196 56.3854C69.8762 56.1565 69.5913 55.9948 69.3398 55.9659C68.9091 55.8974 68.4134 56.0796 68.0871 56.1932C67.7848 56.3073 67.3693 56.6831 67.0712 56.5812C67.103 56.1858 67.1819 55.8393 67.058 55.4288ZM71.6919 59.4929C71.9817 59.4026 72.4765 59.2684 72.8505 59.1677C73.4055 59.0227 73.6848 58.8601 74.2284 58.6788C74.5545 58.5772 74.7905 58.1738 74.7729 57.8494C74.7772 57.6334 74.6187 57.1502 74.5375 57.0046C74.0455 55.7826 73.0686 55.4153 71.8848 55.8C71.402 55.9345 70.8529 56.3918 70.5543 56.926C70.16 57.4463 70.0131 58.1996 70.2207 59.2359C70.5252 60.2261 70.8303 60.5802 71.7943 60.9953C72.3998 61.3313 73.5786 61.1985 74.1993 60.7666C74.4065 60.6027 74.4739 60.232 74.2153 59.9508C73.7649 59.6659 73.4162 60.3071 72.6156 60.1233C72.0899 60.0049 71.7801 59.8908 71.6919 59.4929ZM71.7366 57.2254C72.5045 56.6284 73.2235 56.6906 73.5174 57.6086C73.4534 57.8114 73.1014 58.0085 72.8243 58.063C72.4027 58.1387 71.6661 58.3642 71.4509 58.324C71.3592 58.1061 71.4197 57.4712 71.7366 57.2254ZM77.0537 57.9784C76.9131 57.1955 77.3626 55.7041 76.3993 55.8651C75.8452 55.9622 75.8644 56.8147 75.8269 57.4981C75.7741 58.3492 75.6397 59.0787 75.5392 59.9169C75.4403 60.6711 75.2809 61.4481 76.1483 61.2852C76.4734 61.2316 76.8899 60.1956 77.101 59.8397C77.4728 59.2469 77.3886 59.2573 78.0041 58.4772C78.2506 58.146 78.4996 57.6949 78.8725 57.6542C78.9338 58.1955 78.8672 58.5303 78.7838 59.1047C78.6883 59.691 78.6157 60.3257 78.6401 60.9143C78.9075 61.3516 79.7272 61.1758 79.8912 60.7709C79.9418 60.6399 79.8995 60.351 79.9037 60.135C79.933 59.2594 80.2599 57.8976 80.2043 57.0684C80.1759 56.6837 79.9926 56.236 79.8503 56.1492C79.3886 55.828 78.9143 56.1427 78.5978 56.3645C78.1838 56.6684 77.8403 57.0457 77.5685 57.4364C77.4325 57.6378 77.2737 57.7787 77.0537 57.9784ZM84.5047 62.3262C85.0662 62.4573 85.4071 62.212 85.489 61.7095C85.6394 60.7763 85.5817 59.4429 85.6416 58.2318C85.7189 57.3572 85.8475 56.3155 85.9377 55.3931C86.0234 54.6987 86.3134 53.3841 85.7034 53.2761C85.5126 53.2123 85.1153 53.2765 85.0282 53.4308C84.7402 54.0372 84.9825 55.7463 84.471 56.1203C83.7032 56.1052 83.0294 56.1879 82.4112 56.4998C81.8531 56.8008 81.4604 57.2372 81.1738 57.7716C80.9376 58.187 80.7919 58.8803 80.9476 59.5075C81.1037 60.1107 81.728 60.7111 82.2502 61.0095C82.8202 61.3208 83.4567 61.2973 84.1138 61.4543C84.2648 61.7093 84.2313 62.1888 84.5047 62.3262ZM84.3566 58.8786C84.3133 59.2498 84.3101 60.0179 84.185 60.2795C83.6185 60.4003 82.7504 59.9871 82.4115 59.5244C81.8508 58.7452 82.4618 57.581 83.3513 57.5145C83.9042 57.4774 84.195 57.3391 84.3704 57.5706C84.4494 57.8242 84.4002 58.4954 84.3566 58.8786Z" fill="black"/>
<defs>
<clipPath id="clip0_2_412">
<rect width="28.3944" height="34.4457" fill="white" transform="translate(48.1777 36.1802) rotate(-104.644)"/>
</clipPath>
</defs>
</svg>
