<svg width="89" height="67" viewBox="0 0 89 67" fill="none" xmlns="http://www.w3.org/2000/svg">
<g clip-path="url(#clip0_2_120)">
<path d="M40.9307 39.4223C41.3809 41.0724 40.6585 42.3429 39.8412 43.427C38.6841 44.9198 37.3547 46.3049 35.9302 47.5036C29.2234 52.8537 21.4756 54.8579 13.0024 53.9816C10.849 53.7511 8.69294 53.2085 6.30372 52.7461C6.77419 54.9735 8.56532 56.6429 9.17649 58.9158C8.16251 58.8468 7.70488 58.1798 7.31064 57.6372C5.70197 55.4044 4.1085 53.1246 2.57714 50.8131C1.85075 49.6959 1.95461 49.0552 3.07246 48.4834C5.38545 47.2612 7.84556 46.8647 10.3907 47.3258C10.4845 47.3561 10.5796 47.5425 10.7532 47.8063C9.58358 49.6582 7.15623 48.3534 5.65571 49.7868C8.6484 51.586 11.9261 52.0249 15.2013 52.1517C18.6323 52.2772 22.0139 52.0753 25.2953 51.0629C28.5145 50.0823 31.37 48.465 34.1607 46.5675C36.9832 44.7321 39.1617 42.325 40.9307 39.4223Z" fill="white"/>
</g>
<path d="M29.6172 2.66722C29.1372 2.81386 28.7811 2.98759 28.4177 3.23093C27.5663 3.83122 26.9436 4.93418 27.2596 6.34695C27.4679 7.31201 28.1554 8.00366 29.0729 8.38163C29.4342 8.56038 30.2432 8.8988 30.3972 9.30914C30.5827 9.82134 30.2083 10.3028 29.9108 10.4546C29.3268 10.7874 28.6372 10.5178 27.9638 10.63C27.5483 10.699 27.2787 10.8536 27.2062 11.1416C27.1637 11.2779 27.1205 11.5549 27.3125 11.8707C27.7223 12.3924 28.6426 12.2076 29.2164 12.2398C30.2533 12.1517 31.0388 11.643 31.4425 11.1505C31.7003 10.8397 31.978 10.2073 32.0607 9.82184C32.2533 8.92707 31.7856 8.01921 31.2404 7.58182C30.4467 6.96346 28.9202 6.88749 28.794 5.4102C28.7492 4.89872 29.3734 4.31678 30.0813 4.27857C30.5481 4.25724 30.7922 4.74744 30.9469 5.01708C31.1235 5.34535 31.3017 5.92716 31.6483 5.97767C32.1898 6.04866 32.6184 5.31947 32.5634 4.90545C32.5626 4.77867 32.3691 4.20932 32.2379 3.98438C31.9453 2.88377 30.3653 2.37985 29.6172 2.66722ZM34.2261 7.61408C34.7368 7.71 35.3875 7.14491 36.4493 7.08759C36.7651 7.16302 37.1624 7.93678 36.7646 8.37359C36.5125 8.62864 35.3239 8.41925 34.6197 8.55639C34.2167 8.64073 33.6986 8.8819 33.4832 9.05634C33.1447 9.33045 32.7315 9.77972 32.8071 10.5338C32.8152 10.8584 33.0629 11.18 33.2902 11.4292C33.834 12.1479 34.4342 12.4644 35.222 12.871C35.4485 12.9933 36.0091 13.1508 36.2502 13.1339C36.5887 13.1272 37.0034 12.6641 37.1301 12.3958C37.4319 11.6674 37.6517 10.9162 37.8897 10.1248C38.0757 9.42641 38.3899 8.44588 38.3304 7.53869C38.2951 6.80297 37.892 6.0849 37.4098 5.85121C36.5531 5.56409 35.8401 5.78478 34.9161 6.13813C34.4501 6.28623 33.8932 6.49516 33.9043 7.05941C33.9197 7.31442 33.9718 7.48881 34.2261 7.61408ZM35.5374 9.73678C35.8034 9.75066 36.3398 9.73665 36.5047 9.90883C36.4535 10.3961 36.3093 11.3664 35.8659 11.4324C35.2078 11.2647 34.2083 10.864 34.2792 10.055C34.5173 9.79849 35.0054 9.70902 35.5374 9.73678ZM41.0903 11.2213C41.066 10.5149 40.9449 9.39012 40.8495 8.69032C40.8025 8.33345 40.7423 7.56696 40.5833 7.33909C40.3011 6.94342 39.583 7.0791 39.328 7.362C39.2635 7.43969 39.0921 7.73137 39.1889 8.14978C39.1964 8.88257 39.7521 10.8273 39.9406 12.1141C40.0155 12.7413 40.0449 13.2653 40.4663 13.4081C41.1544 13.6916 41.772 12.7711 42.1171 12.3006C43.2549 10.7168 43.7127 9.97665 44.2893 9.17855C44.6036 8.73296 45.044 8.42732 44.901 7.77882C44.8034 7.23363 44.2457 7.04832 43.8112 7.29828C43.3027 7.58268 43.0779 8.24882 42.6932 8.82779C42.1591 9.48959 41.6456 10.4914 41.0903 11.2213ZM46.6288 11.9583C46.9747 11.8821 47.5631 11.775 48.0079 11.695C48.6674 11.5813 49.0081 11.4201 49.6581 11.2632C50.0472 11.1774 50.3615 10.7318 50.3731 10.3529C50.3995 10.1023 50.2631 9.52487 50.1832 9.34755C49.7323 7.87837 48.633 7.3546 47.2188 7.68458C46.6443 7.79312 45.9606 8.27027 45.5606 8.8617C45.0507 9.4275 44.8053 10.2886 44.944 11.5138C45.2 12.695 45.5195 13.1368 46.599 13.7148C47.2696 14.1654 48.6531 14.1278 49.4174 13.6873C49.6745 13.5172 49.7895 13.0929 49.5169 12.7405C49.0214 12.3646 48.5526 13.0755 47.6402 12.7826C47.0407 12.5929 46.6919 12.4295 46.6288 11.9583ZM46.9054 9.32681C47.8572 8.70892 48.6867 8.85242 48.9375 9.94864C48.843 10.178 48.4144 10.3723 48.0868 10.4082C47.5893 10.4545 46.7107 10.6437 46.4644 10.5756C46.3794 10.3132 46.5126 9.58116 46.9054 9.32681ZM56.9127 6.47927C56.317 6.65596 56.3018 7.7383 56.1421 8.45353C55.8031 9.93823 55.6209 11.5379 55.1602 13.1084C54.9829 13.7232 54.6219 14.8818 55.3342 15.0693C55.7042 15.1645 56.2728 14.8442 56.4582 14.554C56.7292 14.1179 56.7005 13.1858 56.8455 12.6098C57.1048 11.4828 57.361 9.84858 57.6415 8.65335C57.7696 8.10373 58.1747 7.32984 58.0457 6.95027C57.902 6.44247 57.2615 6.37515 56.9127 6.47927ZM62.8214 7.19883C60.2881 7.32674 59.3923 9.5553 59.0277 11.4174C58.7618 12.2059 58.5048 13.9808 59.3806 14.6218C59.9691 15.0497 60.8244 15.6182 62.0064 15.4891C65.1954 15.1485 66.0228 10.759 65.4077 9.24439C65.0859 8.42224 64.2371 7.1224 62.8214 7.19883ZM61.1305 9.89285C61.4265 9.48757 62.0955 8.88217 62.6414 8.9114C63.3544 8.95819 64.0024 10.0258 64.0178 10.5482C64.0605 11.7493 63.309 13.81 61.9988 13.9539C61.4859 14.0126 60.6687 13.617 60.4928 13.148C60.2523 12.4893 60.5217 10.7298 61.1305 9.89285ZM74.3884 8.07672C73.6651 8.1274 73.4864 8.48869 73.0739 9.06473C72.427 9.99622 71.9383 10.7613 71.3384 11.7822C70.9926 12.3934 70.6863 12.8962 70.3142 13.4905C70.0893 13.8892 69.539 14.4367 69.5127 14.9548C69.493 15.5439 70.0405 15.8267 70.6531 15.6236C71.3228 15.4125 71.8004 14.3506 72.1418 13.7811C72.722 12.8145 73.3462 11.6976 74.0664 10.6049C74.3836 10.1315 75.2891 9.01602 75.1652 8.45399C75.1014 8.12351 74.8288 8.03855 74.3884 8.07672ZM69.2654 7.66497C68.5729 7.69072 67.7727 8.07117 67.4907 8.47791C67.043 9.12064 66.9846 10.48 67.5812 10.965C69.3526 12.4604 71.5947 10.9504 71.3409 9.34713C71.225 8.57479 70.1989 7.62232 69.2654 7.66497ZM69.8366 9.86472C69.6367 10.8291 68.0749 9.74995 69.067 9.15037C69.5397 9.07335 69.9391 9.42503 69.8366 9.86472ZM75.2296 12.529C74.4257 12.5431 73.416 13.0423 73.0592 13.6242C72.531 14.4978 72.6639 15.7787 73.3183 16.1149C73.9324 16.4328 75.0433 16.3103 75.6185 16.061C76.0904 15.8573 76.6949 15.3296 76.8223 14.9206C77.2354 13.669 75.9639 12.5077 75.2296 12.529ZM75.3787 14.4592C75.326 14.9604 74.8556 15.1503 74.4276 14.9364C73.4939 14.4441 75.5053 13.3886 75.3787 14.4592ZM23.6008 25.5155C24.4816 25.4392 25.1924 25.6406 25.9537 25.2279C26.7297 24.9434 27.6009 24.2889 27.998 23.7253C28.6559 22.8232 28.5971 21.5078 28.0869 20.7363C27.2719 19.6511 26.2826 19.4204 24.8976 19.2045C24.3238 19.1723 23.4628 19.1944 23.1536 19.725C22.7786 20.8822 22.4352 22.4086 22.2243 23.6112C22.0801 24.5814 21.952 25.3985 21.8144 26.4398C21.7375 27.0371 21.4804 27.7421 21.967 27.934C22.7248 28.2248 23.1585 27.5806 23.3028 26.8778C23.4097 26.3964 23.4499 25.8797 23.6008 25.5155ZM26.6657 23.0081C26.1485 23.911 24.8537 24.3099 23.6885 24.1452C23.7104 23.4014 23.9989 22.2633 24.2487 21.3605C24.4274 20.7317 24.3848 20.6005 25.0297 20.6261C26.3502 20.6523 27.4078 21.7066 26.6657 23.0081ZM30.943 24.3868C31.2888 24.3105 31.8772 24.2034 32.322 24.1235C32.9815 24.0098 33.3223 23.8485 33.9722 23.6916C34.3613 23.6058 34.6756 23.1602 34.6873 22.7814C34.7136 22.5308 34.5772 21.9533 34.4973 21.776C34.0464 20.3068 32.9472 19.7831 31.5329 20.113C30.9584 20.2216 30.2748 20.6987 29.8748 21.2902C29.3649 21.856 29.1195 22.717 29.2582 23.9422C29.5141 25.1235 29.8337 25.5653 30.9132 26.1433C31.5838 26.5939 32.9673 26.5563 33.7315 26.1157C33.9887 25.9457 34.1037 25.5214 33.831 25.169C33.3356 24.7931 32.8667 25.504 31.9543 25.211C31.3549 25.0213 31.0061 24.858 30.943 24.3868ZM31.2195 21.7553C32.1713 21.1374 33.0009 21.2809 33.2517 22.3771C33.1572 22.6065 32.7285 22.8007 32.401 22.8367C31.9034 22.8829 31.0248 23.0721 30.7786 23.004C30.6936 22.7417 30.8268 22.0096 31.2195 21.7553ZM37.557 20.4224C37.4463 20.27 37.2323 20.1631 37.022 20.155C36.2672 20.1039 36.2424 20.608 36.0088 21.6252C35.7649 22.7398 35.5256 24.6151 35.3081 25.7465C35.2356 26.0345 35.1463 26.3489 35.1844 26.5218C35.2365 26.6962 35.5113 26.894 35.7187 26.9299C36.2448 27.0134 36.5123 27.0133 36.7013 26.5546C36.9298 25.9874 37.0813 24.4126 37.1918 23.7626C37.2167 23.5259 38.2308 22.9849 38.8192 22.8778C39.0647 22.8192 39.6795 22.7289 39.9792 22.69C40.265 22.6497 40.8138 22.3836 40.7888 21.8179C40.7609 21.5475 40.4458 21.3314 40.1563 21.2728C39.6624 21.1505 39.0681 21.3133 38.6776 21.413C38.3149 21.5156 37.7946 21.9114 37.4583 21.7635C37.5344 21.3069 37.6604 20.9119 37.557 20.4224ZM46.7694 24.0513C46.7144 23.6372 47.4359 21.7282 46.9104 21.2366C46.7705 21.0952 46.4517 21.0476 46.2897 21.115C45.6449 21.357 45.5981 22.07 45.4737 22.986C45.4034 23.3868 45.3016 23.9533 45.183 24.5462C45.049 25.1515 44.9678 25.7905 44.8763 26.2595C44.7606 26.8245 44.6368 27.3323 44.9116 27.5301C45.0545 27.6437 45.5294 27.6795 45.7653 27.5776C46.0306 27.4647 46.2694 27.0675 46.4973 26.641C46.8884 25.8656 47.32 25.3761 47.7772 24.7766C48.0226 24.4504 48.2394 23.9946 48.6505 23.9674C48.8367 24.6064 48.4705 25.4125 48.2911 26.182C48.2186 26.47 48.1138 26.7968 48.1226 26.9808C48.1689 27.7458 49.0497 27.6694 49.5099 27.3096C50.107 26.8515 50.6506 25.9654 51.0939 25.3645C51.2455 25.127 51.4389 24.894 51.7181 24.7826C51.757 25.3497 51.5791 25.8378 51.4582 26.3178C51.3542 26.7714 51.1587 27.4266 51.2035 27.938C51.2813 28.8049 52.3057 28.7014 52.6039 28.1415C52.7614 27.8484 52.8653 27.1273 52.9524 26.7001C53.0454 26.2172 53.126 25.7188 53.2299 25.2652C53.3896 24.55 53.9001 22.7736 53.3138 22.4586C52.6066 22.0887 52.0117 22.9271 51.6769 23.3001C51.4695 23.5317 51.1713 23.8241 50.9625 24.0697C50.7537 24.3152 50.509 24.5006 50.0965 24.8092C50.223 23.4711 50.2374 21.727 48.8547 22.1589C48.3161 22.3275 47.7959 22.9908 47.4442 23.3902C47.2538 23.5954 46.9329 23.9699 46.7694 24.0513ZM57.0016 22.4521C56.5487 22.4748 56.3098 22.6046 55.9493 22.8201C55.3764 23.1822 55.2906 23.328 54.9177 23.7956C54.21 24.6362 53.8885 26.2213 54.5196 27.3153C54.8795 27.7754 55.6402 28.3058 56.343 28.4501C57.1821 28.6368 57.8474 28.4674 58.4131 28.175C59.4023 27.6032 60.1554 26.5984 60.1179 25.4824C60.2495 23.6944 59.0585 22.3022 57.0016 22.4521ZM55.6897 25.9601C55.6427 25.0683 56.4471 23.8437 57.2136 23.7835C58.2072 23.7049 58.9329 24.837 58.5593 25.9802C58.3682 26.5936 57.7138 27.0597 57.269 27.1397C56.3252 27.2798 55.7294 26.6541 55.6897 25.9601ZM62.7114 25.8254C62.6255 24.9013 63.2958 23.2121 62.1599 23.3039C61.5063 23.3619 61.4442 24.3549 61.3329 25.1456C61.1872 26.1297 60.9587 26.9644 60.7588 27.9288C60.5692 28.7957 60.307 29.6832 61.3314 29.5797C61.7147 29.5496 62.3014 28.3866 62.582 27.9937C63.0729 27.3415 62.974 27.3451 63.7667 26.4994C64.0862 26.1388 64.4202 25.639 64.8577 25.6286C64.8754 26.264 64.7648 26.6465 64.611 27.3061C64.4419 27.9781 64.2947 28.7087 64.2648 29.3953C64.5323 29.9302 65.5025 29.8069 65.7333 29.3526C65.8051 29.2053 65.7845 28.8653 65.8108 28.6146C65.9316 27.5997 66.4465 26.049 66.4639 25.0795C66.469 24.6296 66.3004 24.091 66.1435 23.976C65.6386 23.5569 65.056 23.8758 64.6662 24.1023C64.1548 24.4145 63.7181 24.8191 63.3635 25.2464C63.1855 25.467 62.9869 25.615 62.7114 25.8254ZM71.0861 24.0872C71.0324 23.1244 71.3226 22.7748 71.4976 22.0471C71.6741 21.5729 71.7957 21.2197 71.0952 21.1883C69.9894 21.1284 70.0042 22.059 69.794 22.8534C69.7046 23.1678 69.5472 23.9959 69.2929 24.1381C69.0541 24.2678 68.0948 24.1529 67.7951 24.1918C67.505 24.2739 67.239 24.5275 67.1694 24.7877C67.0749 25.0171 67.127 25.4589 67.4033 25.6428C67.7866 25.8802 68.8066 25.551 69.0749 25.9452C68.9343 26.7469 68.8531 27.3859 68.7139 27.9062C68.6736 28.1554 68.3953 29.196 68.3272 29.4422C68.276 29.662 67.8438 30.8273 67.9039 31.0588C67.9809 31.264 68.4133 31.4361 68.724 31.4265C69.4304 31.4023 69.6764 29.8655 69.8236 29.4024C69.8946 29.1283 70.1465 28.0709 70.2037 27.7953C70.2805 27.4656 70.5434 25.9025 70.8313 25.7075C71.1054 25.5111 72.2368 25.7285 72.6919 25.5511C73.0004 25.4287 73.2099 25.0425 73.1658 24.6578C73.0954 23.9887 71.3866 24.4426 71.0861 24.0872ZM75.9755 25.0094C75.8348 25.0087 76.1366 24.0128 76.2677 23.4353C76.3519 23.0359 76.6823 22.4372 76.4646 21.9638C76.3488 21.7264 75.986 21.5616 75.6584 21.5975C75.0173 21.6709 74.898 22.9394 74.7194 23.8356C74.5451 24.6901 74.3693 25.291 74.165 26.2972C73.8443 27.7416 73.6253 28.352 73.3192 29.6572C73.1383 30.4406 73.0717 31.2078 73.6756 31.3557C74.5454 31.5175 74.6171 30.8353 74.7614 30.1325C75.0301 29.0487 75.0711 28.3914 75.3978 27.4262C75.5596 27.0913 75.7897 26.7776 76.0637 26.5812C76.3099 26.3819 76.6396 26.1913 77.0991 26.2396C77.3139 26.4733 77.0913 28.0547 77.0701 28.3903C76.8996 29.8787 76.6302 31.1032 76.757 31.3699C76.8838 31.6366 77.4832 31.8263 77.8232 31.5383C78.2079 31.2268 78.2642 30.2895 78.3424 29.4109C78.4302 28.5755 78.5986 27.5093 78.6285 26.8226C78.6738 25.8561 78.4993 24.8382 77.8998 24.6485C77.0959 24.3951 76.7025 25.0576 75.9755 25.0094Z" fill="white"/>
<defs>
<clipPath id="clip0_2_120">
<rect width="28.3944" height="34.4457" fill="white" transform="translate(41.5176 39.6123) rotate(107.943)"/>
</clipPath>
</defs>
</svg>
